<?xml version="1.0" encoding="UTF-8"?>
<!DOCTYPE svg PUBLIC "-//W3C//DTD SVG 1.1//EN" "http://www.w3.org/Graphics/SVG/1.1/DTD/svg11.dtd">
<!-- Creator: CorelDRAW -->
<svg xmlns="http://www.w3.org/2000/svg" xml:space="preserve" width="2480px" height="3082px" style="shape-rendering:geometricPrecision; text-rendering:geometricPrecision; image-rendering:optimizeQuality; fill-rule:evenodd; clip-rule:evenodd"
viewBox="0 0 2480 3081.88"
 xmlns:xlink="http://www.w3.org/1999/xlink">
 <defs>
  <style type="text/css">
   <![CDATA[
    .str0 {stroke:#4F8699;stroke-width:9.92454}
    .fil0 {fill:#4F8699}
    .fil1 {fill:white}
    .fil2 {fill:white;fill-rule:nonzero}
   ]]>
  </style>
 </defs>
 <g id="Layer_x0020_1">
  <metadata id="CorelCorpID_0Corel-Layer"/>
  <g id="_255551824">
   <path id="_255547168" class="fil0 str0" d="M1009.4 442.276l-1004.43 -0.344832 0 86.4985 1004.78 -1.60843m1465.3 0l0 -84.2004 -1004.78 -0.344832 0 86.4985 1004.78 -1.60843m-456.498 1021.44c-3.21686,66.7403 -18.2643,131.413 -45.604,194.936 -163.577,214.005 -351.736,221.472 -564.937,22.6302 0,0 -22.6302,419.28 -67.8894,1257.72 -78.5721,75.4709 -148.873,70.3008 -210.789,-15.0486 -132.562,-2114.43 -119.122,-1971.53 -119.926,-2481.22l0 -3.21686c0,-25.3865 0,-52.3814 -0.344832,-81.3284 -0.344832,-42.8465 -0.344832,-90.5184 -1.14905,-143.359 -1.60843,-179.889 82.592,-266.041 253.291,-257.657 139.799,12.2911 209.64,91.6674 210.444,237.439 0.804214,106.831 1.60843,160.36 1.60843,160.36l-2.75747 88.9099c11.1421,95.2279 -11.4869,160.36 -10.6827,231.81 -1.95326,218.714 -3.21686,328.302 -3.21686,328.302 96.0321,-80.9847 188.159,-119.122 274.313,-114.756 86.1536,4.36472 166.794,50.4281 243.757,137.386 0,-87.3027 0,-131.068 0,-131.068 28.947,0 43.6508,0 43.6508,0 0,378.73 0,567.694 0,567.694l0.344832 0.344832 -0.11455 0.11455 0.00236186 0.00118093zm129.461 -1106.44l43.6508 0.344832 0 -437.544 -43.6508 0 0 437.085 0 0.11455zm-462.471 0l43.6508 0.344832 0 -437.544 -43.6508 0 0 437.085 0 0.11455zm-1057.16 0l43.6508 0.344832 0 -437.544 -43.6508 0 0 437.085 0 0.11455z"/>
   <path id="_255547504" class="fil1" d="M1964.09 1524.94c0,-82.9368 0,-124.75 0,-124.75 -233.533,280.631 -699.106,47.4415 -509.798,-319.227 84.89,-105.222 172.536,-124.75 255.13,-126.358 90.8632,-1.60843 173.341,20.3321 261.447,143.934 0,-85.3494 0,-127.851 0,-127.851 29.0627,0 43.881,0 43.881,0 0,369.54 0,554.369 0,554.369 -36.9891,4.70955 -54.2189,4.70955 -50.6584,0l0 0 0 0 0 0 0 -0.11455 -0.00118093 -0.00236186zm-21.4811 -281.435c0,-113.149 -99.3635,-204.816 -222.046,-204.816 -122.568,0 -222.046,91.6674 -222.046,204.816 0,113.149 99.3635,204.816 222.046,204.816 122.568,0 222.046,-91.6674 222.046,-204.816z"/>
   <path id="_255548680" class="fil2" d="M969.191 533.715l85.6943 -8.38579c4.02107,38.2515 13.5547,69.7269 28.2585,94.08 14.8183,24.6968 37.7922,44.3404 68.9227,59.3878 31.1305,15.1632 66.1664,22.7447 105.222,22.7447 34.691,0 64.9028,-5.51377 91.6674,-17.231 26.3052,-11.4869 46.2937,-27.1095 59.3878,-47.0967 12.7505,-19.9873 19.5279,-41.8132 19.5279,-65.3622 0,-23.8938 -6.31798,-45.1446 -18.7237,-62.9495 -12.2911,-18.0352 -33.0826,-33.0826 -61.8005,-45.1446 -18.3788,-7.92641 -59.0442,-20.3321 -121.994,-37.4485 -62.9495,-16.7716 -107.29,-32.6232 -132.332,-47.9009 -32.6232,-19.183 -56.9764,-42.9623 -73.4031,-71.3353 -15.9674,-28.2585 -23.8938,-59.7327 -23.8938,-95.2279 0,-38.2515 9.53484,-74.551 29.5221,-108.094 19.5279,-33.4274 48.2458,-59.0442 86.1536,-76.6188 37.7922,-17.231 79.7211,-25.9604 125.899,-25.9604 51.0032,0 95.5727,9.07427 134.744,27.4543 38.5964,18.3788 68.4633,45.1446 89.7141,80.5253 20.7915,35.4952 32.2784,75.8146 33.8868,120.385l-86.8421 7.12219c-4.70955,-48.2458 -20.7915,-84.89 -47.4415,-109.587 -27.1095,-24.6968 -66.51,-36.9891 -119.581,-36.9891 -55.0231,0 -94.8831,11.1421 -119.926,33.4274 -25.1574,22.3999 -37.7922,49.5094 -37.7922,80.9847 0,27.4543 8.73062,50.199 26.7646,67.7736 17.5758,18.0352 62.9495,35.8401 136.696,54.5637 73.7468,18.7237 124.291,35.0359 151.859,48.7051 39.86,20.7915 69.2675,46.6373 88.4506,78.1127 19.183,31.4742 28.2585,67.7736 28.2585,108.898 0,40.6642 -10.3379,78.9169 -31.1305,114.756 -20.7915,35.8401 -51.0032,63.7537 -90.059,84.0858 -39.0558,19.9873 -83.2816,29.8669 -131.987,29.8669 -62.1453,0 -113.953,-9.87849 -155.766,-30.3263 -41.8132,-19.9873 -75.0104,-50.199 -98.7896,-90.8632 -23.8938,-40.2048 -36.1849,-86.4985 -37.4485,-137.501l-1.60843 0.804214 0 0 -0.11455 0.344832 0 0 0 0 0.00236186 -0.00118093z"/>
  </g>
 </g>
</svg>
