<?xml version="1.0" encoding="UTF-8"?>
<!DOCTYPE svg PUBLIC "-//W3C//DTD SVG 1.1//EN" "http://www.w3.org/Graphics/SVG/1.1/DTD/svg11.dtd">
<!-- Creator: CorelDRAW -->
<svg xmlns="http://www.w3.org/2000/svg" xml:space="preserve" width="73.3857mm" height="27.8585mm" style="shape-rendering:geometricPrecision; text-rendering:geometricPrecision; image-rendering:optimizeQuality; fill-rule:evenodd; clip-rule:evenodd"
viewBox="0 0 3.82208 1.45093"
 xmlns:xlink="http://www.w3.org/1999/xlink">
 <defs>
  <style type="text/css">
   <![CDATA[
    .str0 {stroke:#0D47A1;stroke-width:0.0132288}
    .fil1 {fill:#0D47A1}
    .fil2 {fill:white}
    .fil0 {fill:#0D47A1;fill-rule:nonzero}
    .fil3 {fill:white;fill-rule:nonzero}
   ]]>
  </style>
 </defs>
 <g id="Layer_x0020_1">
  <metadata id="CorelCorpID_0Corel-Layer"/>
  <g id="_220800248">
   <path id="_220785632" class="fil0 str0" d="M1.63328 0.875927l-0.0532643 0c-0.00434885,0 -0.00750503,-0.000973935 -0.00944769,-0.00292701 -0.00194787,-0.00194266 -0.0029218,-0.00509363 -0.0029218,-0.00944769l0 -0.222682c0,-0.00435406 0.000973935,-0.00750503 0.0029218,-0.0094529 0.00194266,-0.00194266 0.00509884,-0.0029166 0.00944769,-0.0029166l0.105159 0c0.0311607,0 0.0524623,0.00618214 0.0639151,0.0185568 0.0114581,0.0123695 0.0171871,0.0285201 0.0171871,0.048452l0 0.0439833c0,0.019937 -0.00572903,0.0360877 -0.0171871,0.0484572 -0.0114529,0.0123695 -0.0327544,0.0185568 -0.0639151,0.0185568l-0.0395199 0 0 0.0570455c0,0.00435406 -0.000973935,0.00750503 -0.0029218,0.00944769 -0.00194787,0.00195308 -0.00509884,0.00292701 -0.0094529,0.00292701zm0.0116872 -0.183167l0 0.0518894 0.0309263 0c0.00664567,0 0.0109945,-0.0017135 0.013057,-0.00515613 0.00206245,-0.00343221 0.00309368,-0.00732795 0.00309368,-0.0116768l0 -0.0182183c0,-0.00434885 -0.00103123,-0.0082498 -0.00309368,-0.0116872 -0.00206245,-0.00343221 -0.0064113,-0.00515092 -0.013057,-0.00515092l-0.0309263 0zm0.234713 -0.00240619l0 0.0439885 0.0257754 0c0.00595298,0 0.0099633,-0.00154684 0.0120258,-0.00464051 0.00206245,-0.00309368 0.00309368,-0.00692692 0.00309368,-0.0115101l0 -0.0116872c0,-0.00458322 -0.00103123,-0.00841647 -0.00309368,-0.0115101 -0.00206245,-0.00309368 -0.00607277,-0.00464051 -0.0120258,-0.00464051l-0.0257754 0zm-0.0123695 0.185574l-0.0529258 0c-0.00434885,0 -0.00750503,-0.000973935 -0.00944769,-0.00292701 -0.00194787,-0.00194266 -0.0029218,-0.00509363 -0.0029218,-0.00944769l0 -0.222682c0,-0.00435406 0.000973935,-0.00750503 0.0029218,-0.0094529 0.00194266,-0.00194266 0.00509884,-0.0029166 0.00944769,-0.0029166l0.114435 0c0.0256608,0 0.0433583,0.00532279 0.0530925,0.0159788 0.00973935,0.0106508 0.014609,0.0244525 0.014609,0.0414053l0 0.0158121c0,0.00961956 -0.00143226,0.0178069 -0.00429677,0.0245723 -0.00286451,0.00675505 -0.00784877,0.0116247 -0.0149476,0.0146038 0.0123695,0.00137497 0.0223953,0.0064113 0.0300722,0.0151194 0.00767169,0.00870292 0.0115101,0.0202756 0.0115101,0.0347075l0 0.0728524c0,0.00435406 -0.000973935,0.00750503 -0.0029218,0.00944769 -0.00194787,0.00195308 -0.00509884,0.00292701 -0.0094529,0.00292701l-0.0532643 0c-0.00435406,0 -0.00749982,-0.000973935 -0.0094529,-0.00292701 -0.00194787,-0.00194266 -0.0029218,-0.00509363 -0.0029218,-0.00944769l0 -0.0525769c0,-0.00504155 -0.000968727,-0.00876541 -0.0029166,-0.0111716 -0.00194787,-0.00240098 -0.005328,-0.00360929 -0.0101404,-0.00360929l-0.0481082 0 0 0.0673578c0,0.00435406 -0.000973935,0.00750503 -0.0029218,0.00944769 -0.00194787,0.00195308 -0.00509884,0.00292701 -0.00944769,0.00292701zm0.399662 -0.0649516c0,0.0105362 -0.00154684,0.0201037 -0.00464051,0.0286972 -0.00308847,0.00858834 -0.00858834,0.0159215 -0.0164944,0.0219891 -0.00790085,0.00607277 -0.018786,0.0108227 -0.0326451,0.0142653 -0.013859,0.00343742 -0.0314472,0.00515092 -0.0527487,0.00515092 -0.0213068,0 -0.038947,-0.0017135 -0.0529258,-0.00515092 -0.0139736,-0.00344263 -0.0249109,-0.00819251 -0.0328169,-0.0142653 -0.00790606,-0.00606756 -0.0134007,-0.0134007 -0.0164944,-0.0219891 -0.00309368,-0.00859354 -0.00464051,-0.018161 -0.00464051,-0.0286972l0 -0.117185c0,-0.0105362 0.00154684,-0.0201037 0.00464051,-0.028692 0.00309368,-0.00859354 0.00858834,-0.015984 0.0164944,-0.0221661 0.00790606,-0.00618735 0.0188433,-0.0109997 0.0328169,-0.0144319 0.0139788,-0.00343742 0.031619,-0.00515613 0.0529258,-0.00515613 0.0213016,0 0.0388897,0.00171871 0.0527487,0.00515613 0.013859,0.00343221 0.0247442,0.00824459 0.0326451,0.0144319 0.00790606,0.00618214 0.0134059,0.0135726 0.0164944,0.0221661 0.00309368,0.00858834 0.00464051,0.0181558 0.00464051,0.028692l0 0.117185zm-0.135398 -0.0123695c0,0.00457802 0.00171871,0.00841647 0.00515613,0.0115101 0.00343742,0.00309368 0.0113383,0.00464051 0.023713,0.00464051 0.0123695,0 0.0202703,-0.00154684 0.0237078,-0.00464051 0.00343742,-0.00309368 0.00515613,-0.00693213 0.00515613,-0.0115101l0 -0.0924405c0,-0.00435406 -0.00171871,-0.00807793 -0.00515613,-0.0111716 -0.00343742,-0.00309368 -0.0113383,-0.00464051 -0.0237078,-0.00464051 -0.0123747,0 -0.0202756,0.00154684 -0.023713,0.00464051 -0.00343742,0.00309368 -0.00515613,0.00681754 -0.00515613,0.0111716l0 0.0924405zm0.304472 0.0773211l-0.0556705 0c-0.00434885,0 -0.00749982,-0.000973935 -0.00944769,-0.00292701 -0.00194787,-0.00194266 -0.0029218,-0.00509363 -0.0029218,-0.00944769l0 -0.0439833 -0.0525769 -0.0704514c-0.00527071,-0.007104 -0.00876541,-0.0132861 -0.0104841,-0.0185568 -0.0017135,-0.0052655 -0.00257286,-0.0131716 -0.00257286,-0.023713l0 -0.0659776c0,-0.00435406 0.000973935,-0.00750503 0.0029218,-0.0094529 0.00194266,-0.00194266 0.00509884,-0.0029166 0.00944769,-0.0029166l0.0529206 0c0.00435406,0 0.00750503,0.000973935 0.0094529,0.0029166 0.00194787,0.00194787 0.0029218,0.00509884 0.0029218,0.0094529l0 0.056358c0,0.00229161 0.000114581,0.0046926 0.000338534,0.00721337 0.000234369,0.00252077 0.00115101,0.00492697 0.00275514,0.00721858l0.0158017 0.0247442c0.00115101,0.00206245 0.00235411,0.003552 0.00360929,0.00446864 0.00126039,0.000916645 0.00280722,0.00137497 0.00464051,0.00137497l0.00343742 0c0.00183329,0 0.00338013,-0.000458322 0.00464051,-0.00137497 0.00126039,-0.000916645 0.00246348,-0.00240619 0.00360408,-0.00446864l0.0158121 -0.0247442c0.00160413,-0.00229161 0.00252077,-0.0046978 0.00274993,-0.00721858 0.000229161,-0.00252077 0.000343742,-0.00492176 0.000343742,-0.00721337l0 -0.056358c0,-0.00435406 0.000973935,-0.00750503 0.0029166,-0.0094529 0.00194787,-0.00194266 0.00509884,-0.0029166 0.0094529,-0.0029166l0.0512019 0c0.00435406,0 0.00750503,0.000973935 0.0094529,0.0029166 0.00194266,0.00194787 0.0029166,0.00509884 0.0029166,0.0094529l0 0.0659776c0,0.0105414 -0.000916645,0.0184475 -0.00274473,0.023713 -0.00183329,0.00527071 -0.00527071,0.0114529 -0.0103123,0.0185568l-0.0522331 0.07079 0 0.0436448c0,0.00435406 -0.000973935,0.00750503 -0.0029218,0.00944769 -0.00194787,0.00195308 -0.00509363,0.00292701 -0.0094529,0.00292701zm0.28867 0l-0.159455 0c-0.00435406,0 -0.00750503,-0.000973935 -0.00944769,-0.00292701 -0.00195308,-0.00194266 -0.00292701,-0.00509363 -0.00292701,-0.00944769l0 -0.222682c0,-0.00435406 0.000973935,-0.00750503 0.00292701,-0.0094529 0.00194266,-0.00194266 0.00509363,-0.0029166 0.00944769,-0.0029166l0.159455 0c0.00434885,0 0.00749982,0.000973935 0.00944769,0.0029166 0.00194787,0.00194787 0.0029218,0.00509884 0.0029218,0.0094529l0 0.0402074c0,0.00434885 -0.000973935,0.00749982 -0.0029218,0.00944769 -0.00194787,0.00194787 -0.00509884,0.0029218 -0.00944769,0.0029218l-0.0948519 0 0 0.0264629 0.067014 0c0.00435406,0 0.00750503,0.000973935 0.0094529,0.0029218 0.00194787,0.00194787 0.0029218,0.00509363 0.0029218,0.00944769l0 0.03677c0,0.00435406 -0.000973935,0.00750503 -0.0029218,0.0094529 -0.00194787,0.00194787 -0.00509884,0.0029218 -0.0094529,0.0029218l-0.067014 0 0 0.0295514 0.0948519 0c0.00434885,0 0.00749982,0.000973935 0.00944769,0.0029218 0.00194787,0.00194266 0.0029218,0.00509884 0.0029218,0.00944769l0 0.0402074c0,0.00435406 -0.000973935,0.00750503 -0.0029218,0.00944769 -0.00194787,0.00195308 -0.00509884,0.00292701 -0.00944769,0.00292701zm0.217526 0l-0.0838469 0c-0.0286399,0 -0.0498894,-0.00572903 -0.0637485,-0.0171819 -0.0138643,-0.0114581 -0.0207912,-0.0290983 -0.0207912,-0.0529258l0 -0.106878c0,-0.0238223 0.00692692,-0.0415198 0.0207912,-0.0530925 0.013859,-0.0115674 0.0351085,-0.0173485 0.0637485,-0.0173485l0.0838469 0c0.00435406,0 0.00750503,0.000973935 0.0094529,0.0029166 0.00194787,0.00194787 0.0029218,0.00509884 0.0029218,0.0094529l0 0.0415771c0,0.00435406 -0.000973935,0.00750503 -0.0029218,0.0094529 -0.00194787,0.00194787 -0.00509884,0.0029218 -0.0094529,0.0029218l-0.0690765 0c-0.00709879,0 -0.0123695,0.00143226 -0.0158017,0.00429677 -0.00343742,0.00285931 -0.00515613,0.00716129 -0.00515613,0.0128851l0 0.0817897c0,0.00572903 0.00171871,0.00990601 0.00515613,0.0125414 0.00343221,0.00263535 0.00870292,0.00395303 0.0158017,0.00395303l0.0690765 0c0.00435406,0 0.00750503,0.000973935 0.0094529,0.0029218 0.00194787,0.00194787 0.0029218,0.00509363 0.0029218,0.0094529l0 0.0408896c0,0.00435406 -0.000973935,0.00750503 -0.0029218,0.00944769 -0.00194787,0.00195308 -0.00509884,0.00292701 -0.0094529,0.00292701zm0.168048 0l-0.0556705 0c-0.00435927,0 -0.00750503,-0.000973935 -0.0094529,-0.00292701 -0.00194787,-0.00194266 -0.0029218,-0.00509363 -0.0029218,-0.00944769l0 -0.16873 -0.0505144 0c-0.00435406,0 -0.00750503,-0.000973935 -0.0094529,-0.0029218 -0.00194266,-0.00194787 -0.0029166,-0.00509884 -0.0029166,-0.0094529l0 -0.0415771c0,-0.00435406 0.000973935,-0.00750503 0.0029166,-0.0094529 0.00194787,-0.00194266 0.00509884,-0.0029166 0.0094529,-0.0029166l0.181444 0c0.00435406,0 0.00749982,0.000973935 0.0094529,0.0029166 0.00194787,0.00194787 0.0029218,0.00509884 0.0029218,0.0094529l0 0.0415771c0,0.00435406 -0.000973935,0.00750503 -0.0029218,0.0094529 -0.00195308,0.00194787 -0.00509884,0.0029218 -0.0094529,0.0029218l-0.0505144 0 0 0.16873c0,0.00435406 -0.000973935,0.00750503 -0.0029218,0.00944769 -0.00194787,0.00195308 -0.00509884,0.00292701 -0.00944769,0.00292701zm0.318216 -0.0649516c0,0.0105362 -0.00154684,0.0201037 -0.00463531,0.0286972 -0.00309368,0.00858834 -0.00859354,0.0159215 -0.0164996,0.0219891 -0.00790085,0.00607277 -0.018786,0.0108227 -0.0326451,0.0142653 -0.013859,0.00343742 -0.0314472,0.00515092 -0.0527487,0.00515092 -0.0213068,0 -0.038947,-0.0017135 -0.0529258,-0.00515092 -0.0139736,-0.00344263 -0.0249109,-0.00819251 -0.0328117,-0.0142653 -0.00791127,-0.00606756 -0.0134059,-0.0134007 -0.0164996,-0.0219891 -0.00308847,-0.00859354 -0.00463531,-0.018161 -0.00463531,-0.0286972l0 -0.117185c0,-0.0105362 0.00154684,-0.0201037 0.00463531,-0.028692 0.00309368,-0.00859354 0.00858834,-0.015984 0.0164996,-0.0221661 0.00790085,-0.00618735 0.0188381,-0.0109997 0.0328117,-0.0144319 0.0139788,-0.00343742 0.031619,-0.00515613 0.0529258,-0.00515613 0.0213016,0 0.0388897,0.00171871 0.0527487,0.00515613 0.013859,0.00343221 0.0247442,0.00824459 0.0326451,0.0144319 0.00790606,0.00618214 0.0134059,0.0135726 0.0164996,0.0221661 0.00308847,0.00858834 0.00463531,0.0181558 0.00463531,0.028692l0 0.117185zm-0.135398 -0.0123695c0,0.00457802 0.00171871,0.00841647 0.00515613,0.0115101 0.00343742,0.00309368 0.0113383,0.00464051 0.023713,0.00464051 0.0123695,0 0.0202703,-0.00154684 0.0237078,-0.00464051 0.00344263,-0.00309368 0.00515613,-0.00693213 0.00515613,-0.0115101l0 -0.0924405c0,-0.00435406 -0.0017135,-0.00807793 -0.00515613,-0.0111716 -0.00343742,-0.00309368 -0.0113383,-0.00464051 -0.0237078,-0.00464051 -0.0123747,0 -0.0202756,0.00154684 -0.023713,0.00464051 -0.00343742,0.00309368 -0.00515613,0.00681754 -0.00515613,0.0111716l0 0.0924405zm0.293826 0.0773211l-0.108596 0c-0.00434885,0 -0.00750503,-0.000973935 -0.00944769,-0.00292701 -0.00194787,-0.00194266 -0.0029218,-0.00509363 -0.0029218,-0.00944769l0 -0.0402074c0,-0.00434885 0.000973935,-0.00750503 0.0029218,-0.00944769 0.00194266,-0.00194787 0.00509884,-0.0029218 0.00944769,-0.0029218l0.0924405 0c0.0029791,0 0.00521342,-0.000973935 0.00670296,-0.0029218 0.00148955,-0.00194787 0.00223432,-0.00429677 0.00223432,-0.0070415 0,-0.00389574 -0.000744774,-0.00676546 -0.00223432,-0.00859354 -0.00148955,-0.00183329 -0.00372387,-0.00286451 -0.00670296,-0.00309368l-0.0515456 -0.00721858c-0.0160361,-0.00229161 -0.0289264,-0.00755711 -0.0386605,-0.0158069 -0.00973935,-0.00824459 -0.0146038,-0.0219891 -0.0146038,-0.0412386l0 -0.0360825c0,-0.0194735 0.00629672,-0.0344211 0.0189006,-0.0448479 0.0125987,-0.0104216 0.0300097,-0.0156298 0.0522331,-0.0156298l0.0962217 0c0.00435406,0 0.00749982,0.000973935 0.00944769,0.0029166 0.00194787,0.00194787 0.0029218,0.00509884 0.0029218,0.0094529l0 0.0408949c0,0.00435406 -0.000973935,0.00749982 -0.0029218,0.00944769 -0.00194787,0.00194787 -0.00509363,0.0029218 -0.00944769,0.0029218l-0.080071 0c-0.00297389,0 -0.00527071,0.000973935 -0.00687484,0.0029218 -0.00159892,0.00194787 -0.00240619,0.00440614 -0.00240619,0.00738524 0,0.0029791 0.000807272,0.00549987 0.00240619,0.00756232 0.00160413,0.00206245 0.00390095,0.00320826 0.00687484,0.00343742l0.0512071 0.00687484c0.0160361,0.0022864 0.0289785,0.00756232 0.0388272,0.0158069 0.00985393,0.0082498 0.0147809,0.0219891 0.0147809,0.0412386l0 0.0360825c0,0.0194683 -0.00635922,0.0344211 -0.0190725,0.0448479 -0.0127184,0.0104216 -0.0300722,0.015635 -0.0520613,0.015635z"/>
   <path id="_220803920" class="fil0 str0" d="M1.73947 1.15157l-0.159455 0c-0.00434885,0 -0.00750503,-0.000973935 -0.00944769,-0.0029218 -0.00194787,-0.00194266 -0.0029218,-0.00509884 -0.0029218,-0.00944769l0 -0.222682c0,-0.00435927 0.000973935,-0.00750503 0.0029218,-0.0094529 0.00194266,-0.00194787 0.00509884,-0.0029218 0.00944769,-0.0029218l0.159455 0c0.00435406,0 0.00750503,0.000973935 0.0094529,0.0029218 0.00194787,0.00194787 0.0029218,0.00509363 0.0029218,0.0094529l0 0.0402074c0,0.00434885 -0.000973935,0.00749982 -0.0029218,0.00944769 -0.00194787,0.00194787 -0.00509884,0.0029218 -0.0094529,0.0029218l-0.0948467 0 0 0.0264577 0.0670088 0c0.00435406,0 0.00750503,0.000973935 0.0094529,0.0029218 0.00194787,0.00194787 0.0029218,0.00509884 0.0029218,0.0094529l0 0.03677c0,0.00435406 -0.000973935,0.00749982 -0.0029218,0.00944769 -0.00194787,0.00194787 -0.00509884,0.00292701 -0.0094529,0.00292701l-0.0670088 0 0 0.0295514 0.0948467 0c0.00435406,0 0.00750503,0.000973935 0.0094529,0.0029218 0.00194787,0.00194266 0.0029218,0.00509884 0.0029218,0.00944769l0 0.0402074c0,0.00434885 -0.000973935,0.00750503 -0.0029218,0.00944769 -0.00194787,0.00194787 -0.00509884,0.0029218 -0.0094529,0.0029218zm0.240213 0l-0.174918 0c-0.00435406,0 -0.00750503,-0.000973935 -0.0094529,-0.0029218 -0.00194787,-0.00194266 -0.0029218,-0.00509884 -0.0029218,-0.00944769l0 -0.222682c0,-0.00435927 0.000973935,-0.00750503 0.0029218,-0.0094529 0.00194787,-0.00194787 0.00509884,-0.0029218 0.0094529,-0.0029218l0.0532591 0c0.00435927,0 0.00750503,0.000973935 0.0094529,0.0029218 0.00195308,0.00194787 0.0029218,0.00509363 0.0029218,0.0094529l0 0.170105 0.0470822 0 0 -0.0556705c0,-0.00435927 0.000973935,-0.00750503 0.0029166,-0.0094529 0.00194787,-0.00194787 0.00509884,-0.0029218 0.0094529,-0.0029218l0.0498321 0c0.00434885,0 0.00749982,0.000973935 0.00944769,0.0029218 0.00194787,0.00194787 0.0029218,0.00509363 0.0029218,0.0094529l0 0.108247c0,0.00434885 -0.000973935,0.00750503 -0.0029218,0.00944769 -0.00194787,0.00194787 -0.00509884,0.0029218 -0.00944769,0.0029218zm0.223375 0l-0.15946 0c-0.00434885,0 -0.00749982,-0.000973935 -0.00944769,-0.0029218 -0.00194787,-0.00194266 -0.0029218,-0.00509884 -0.0029218,-0.00944769l0 -0.222682c0,-0.00435927 0.000973935,-0.00750503 0.0029218,-0.0094529 0.00194787,-0.00194787 0.00509884,-0.0029218 0.00944769,-0.0029218l0.15946 0c0.00434885,0 0.00749982,0.000973935 0.00944769,0.0029218 0.00194787,0.00194787 0.0029218,0.00509363 0.0029218,0.0094529l0 0.0402074c0,0.00434885 -0.000973935,0.00749982 -0.0029218,0.00944769 -0.00194787,0.00194787 -0.00509884,0.0029218 -0.00944769,0.0029218l-0.0948519 0 0 0.0264577 0.0670088 0c0.00435406,0 0.00750503,0.000973935 0.0094529,0.0029218 0.00194787,0.00194787 0.0029218,0.00509884 0.0029218,0.0094529l0 0.03677c0,0.00435406 -0.000973935,0.00749982 -0.0029218,0.00944769 -0.00194787,0.00194787 -0.00509884,0.00292701 -0.0094529,0.00292701l-0.0670088 0 0 0.0295514 0.0948519 0c0.00434885,0 0.00749982,0.000973935 0.00944769,0.0029218 0.00194787,0.00194266 0.0029218,0.00509884 0.0029218,0.00944769l0 0.0402074c0,0.00434885 -0.000973935,0.00750503 -0.0029218,0.00944769 -0.00194787,0.00194787 -0.00509884,0.0029218 -0.00944769,0.0029218zm0.217526 0l-0.0838522 0c-0.0286399,0 -0.0498842,-0.00572382 -0.0637485,-0.0171819 -0.013859,-0.0114581 -0.020786,-0.0290931 -0.020786,-0.0529206l0 -0.106878c0,-0.0238276 0.00692692,-0.0415198 0.020786,-0.0530925 0.0138643,-0.0115674 0.0351085,-0.0173538 0.0637485,-0.0173538l0.0838522 0c0.00435406,0 0.00749982,0.000973935 0.00944769,0.0029218 0.00194787,0.00194787 0.0029218,0.00509363 0.0029218,0.0094529l0 0.0415771c0,0.00435406 -0.000973935,0.00750503 -0.0029218,0.0094529 -0.00194787,0.00194787 -0.00509363,0.0029166 -0.00944769,0.0029166l-0.0690765 0c-0.00709879,0 -0.0123695,0.00143226 -0.0158069,0.00430198 -0.00343742,0.00285931 -0.00515092,0.00715608 -0.00515092,0.0128851l0 0.0817897c0,0.00572382 0.0017135,0.00990601 0.00515092,0.0125414 0.00343742,0.00263535 0.00870812,0.00395303 0.0158069,0.00395303l0.0690765 0c0.00435406,0 0.00749982,0.000968727 0.00944769,0.0029166 0.00194787,0.00194787 0.0029218,0.00509884 0.0029218,0.0094529l0 0.0408949c0,0.00434885 -0.000973935,0.00750503 -0.0029218,0.00944769 -0.00194787,0.00194787 -0.00509363,0.0029218 -0.00944769,0.0029218zm0.168043 0l-0.0556705 0c-0.00435406,0 -0.00750503,-0.000973935 -0.0094529,-0.0029218 -0.00194266,-0.00194266 -0.0029166,-0.00509884 -0.0029166,-0.00944769l0 -0.168736 -0.0505144 0c-0.00435927,0 -0.00750503,-0.000968727 -0.0094529,-0.0029166 -0.00194787,-0.00194787 -0.0029218,-0.00509884 -0.0029218,-0.0094529l0 -0.0415771c0,-0.00435927 0.000973935,-0.00750503 0.0029218,-0.0094529 0.00194787,-0.00194787 0.00509363,-0.0029218 0.0094529,-0.0029218l0.181444 0c0.00434885,0 0.00749982,0.000973935 0.00944769,0.0029218 0.00194787,0.00194787 0.0029218,0.00509363 0.0029218,0.0094529l0 0.0415771c0,0.00435406 -0.000973935,0.00750503 -0.0029218,0.0094529 -0.00194787,0.00194787 -0.00509884,0.0029166 -0.00944769,0.0029166l-0.0505144 0 0 0.168736c0,0.00434885 -0.000973935,0.00750503 -0.0029218,0.00944769 -0.00195308,0.00194787 -0.00509884,0.0029218 -0.0094529,0.0029218zm0.186261 -0.185568l0 0.0439833 0.0257754 0c0.00595298,0 0.0099633,-0.00154163 0.0120258,-0.00463531 0.00206245,-0.00309368 0.00309368,-0.00693213 0.00309368,-0.0115101l0 -0.0116872c0,-0.00458322 -0.00103123,-0.00841647 -0.00309368,-0.0115101 -0.00206245,-0.00309368 -0.00607277,-0.00464051 -0.0120258,-0.00464051l-0.0257754 0zm-0.0123695 0.185568l-0.0529258 0c-0.00434885,0 -0.00750503,-0.000973935 -0.00944769,-0.0029218 -0.00194787,-0.00194266 -0.0029218,-0.00509884 -0.0029218,-0.00944769l0 -0.222682c0,-0.00435927 0.000973935,-0.00750503 0.0029218,-0.0094529 0.00194266,-0.00194787 0.00509884,-0.0029218 0.00944769,-0.0029218l0.114435 0c0.0256608,0 0.0433583,0.005328 0.0530925,0.0159788 0.00973935,0.0106508 0.014609,0.0244577 0.014609,0.0414105l0 0.0158069c0,0.00962477 -0.00143226,0.0178121 -0.00429677,0.0245723 -0.00286451,0.00676025 -0.00784877,0.0116247 -0.0149476,0.0146038 0.0123695,0.00138018 0.0223953,0.00641651 0.0300722,0.0151194 0.00766648,0.00870812 0.0115101,0.0202808 0.0115101,0.0347127l0 0.0728524c0,0.00434885 -0.000973935,0.00750503 -0.0029218,0.00944769 -0.00194787,0.00194787 -0.00509884,0.0029218 -0.0094529,0.0029218l-0.0532643 0c-0.00435406,0 -0.00750503,-0.000973935 -0.0094529,-0.0029218 -0.00194787,-0.00194266 -0.0029218,-0.00509884 -0.0029218,-0.00944769l0 -0.0525769c0,-0.00504155 -0.000968727,-0.00876541 -0.0029166,-0.0111716 -0.00194787,-0.00240098 -0.005328,-0.00360929 -0.0101404,-0.00360929l-0.0481082 0 0 0.0673578c0,0.00434885 -0.000973935,0.00750503 -0.0029218,0.00944769 -0.00194787,0.00194787 -0.00509884,0.0029218 -0.00944769,0.0029218zm0.196907 0c-0.00434885,0 -0.00749982,-0.000973935 -0.00944769,-0.0029218 -0.00194787,-0.00194266 -0.0029218,-0.00509884 -0.0029218,-0.00944769l0 -0.0408949c0,-0.00435406 0.000973935,-0.00750503 0.0029218,-0.0094529 0.00194787,-0.00194787 0.00509884,-0.0029166 0.00944769,-0.0029166l0.0340252 0 0 -0.115471 -0.0340252 0c-0.00434885,0 -0.00749982,-0.000968727 -0.00944769,-0.0029166 -0.00194787,-0.00194787 -0.0029218,-0.00509884 -0.0029218,-0.0094529l0 -0.0415771c0,-0.00435927 0.000973935,-0.00750503 0.0029218,-0.0094529 0.00194787,-0.00194787 0.00509884,-0.0029218 0.00944769,-0.0029218l0.146398 0c0.00435406,0 0.00750503,0.000973935 0.0094529,0.0029218 0.00194787,0.00194787 0.0029218,0.00509363 0.0029218,0.0094529l0 0.0415771c0,0.00435406 -0.000973935,0.00750503 -0.0029218,0.0094529 -0.00194787,0.00194787 -0.00509884,0.0029166 -0.0094529,0.0029166l-0.0333325 0 0 0.115471 0.0333325 0c0.00435406,0 0.00750503,0.000968727 0.0094529,0.0029166 0.00194787,0.00194787 0.0029218,0.00509884 0.0029218,0.0094529l0 0.0408949c0,0.00434885 -0.000973935,0.00750503 -0.0029218,0.00944769 -0.00194787,0.00194787 -0.00509884,0.0029218 -0.0094529,0.0029218l-0.146398 0zm0.365647 0l-0.0838469 0c-0.0286399,0 -0.0498894,-0.00572382 -0.0637485,-0.0171819 -0.0138643,-0.0114581 -0.0207912,-0.0290931 -0.0207912,-0.0529206l0 -0.106878c0,-0.0238276 0.00692692,-0.0415198 0.0207912,-0.0530925 0.013859,-0.0115674 0.0351085,-0.0173538 0.0637485,-0.0173538l0.0838469 0c0.00435406,0 0.00750503,0.000973935 0.0094529,0.0029218 0.00194787,0.00194787 0.0029218,0.00509363 0.0029218,0.0094529l0 0.0415771c0,0.00435406 -0.000973935,0.00750503 -0.0029218,0.0094529 -0.00194787,0.00194787 -0.00509884,0.0029166 -0.0094529,0.0029166l-0.0690765 0c-0.00709879,0 -0.0123695,0.00143226 -0.0158017,0.00430198 -0.00344263,0.00285931 -0.00515613,0.00715608 -0.00515613,0.0128851l0 0.0817897c0,0.00572382 0.0017135,0.00990601 0.00515613,0.0125414 0.00343221,0.00263535 0.00870292,0.00395303 0.0158017,0.00395303l0.0690765 0c0.00435406,0 0.00750503,0.000968727 0.0094529,0.0029166 0.00194787,0.00194787 0.0029218,0.00509884 0.0029218,0.0094529l0 0.0408949c0,0.00434885 -0.000973935,0.00750503 -0.0029218,0.00944769 -0.00194787,0.00194787 -0.00509884,0.0029218 -0.0094529,0.0029218zm0.260832 -0.0649464c0,0.0105362 -0.00154684,0.0201037 -0.00464051,0.028692 -0.00309368,0.00858834 -0.00859354,0.0159267 -0.0164944,0.0219943 -0.00790606,0.00607277 -0.0187912,0.0108227 -0.0326451,0.0142601 -0.0138643,0.00343742 -0.0314472,0.00515613 -0.0527539,0.00515613 -0.0213068,0 -0.038947,-0.00171871 -0.0529258,-0.00515613 -0.0139736,-0.00343742 -0.0249109,-0.0081873 -0.0328117,-0.0142601 -0.00790606,-0.00606756 -0.0134059,-0.0134059 -0.0164944,-0.0219943 -0.00309368,-0.00858834 -0.00464051,-0.0181558 -0.00464051,-0.028692l0 -0.11719c0,-0.0105362 0.00154684,-0.0201037 0.00464051,-0.028692 0.00308847,-0.00858834 0.00858834,-0.0159788 0.0164944,-0.0221609 0.00790085,-0.00618735 0.0188381,-0.0109997 0.0328117,-0.0144372 0.0139788,-0.00343742 0.031619,-0.00515092 0.0529258,-0.00515092 0.0213068,0 0.0388897,0.0017135 0.0527539,0.00515092 0.0138538,0.00343742 0.024739,0.0082498 0.0326451,0.0144372 0.00790085,0.00618214 0.0134007,0.0135726 0.0164944,0.0221609 0.00309368,0.00858834 0.00464051,0.0181558 0.00464051,0.028692l0 0.11719zm-0.135403 -0.0123747c0,0.00458322 0.00171871,0.00842167 0.00515613,0.0115101 0.00343742,0.00309368 0.0113435,0.00464051 0.023713,0.00464051 0.0123695,0 0.0202756,-0.00154684 0.023713,-0.00464051 0.00343742,-0.00308847 0.00515092,-0.00692692 0.00515092,-0.0115101l0 -0.0924405c0,-0.00435406 -0.0017135,-0.00807272 -0.00515092,-0.0111664 -0.00343742,-0.00309368 -0.0113435,-0.00464051 -0.023713,-0.00464051 -0.0123695,0 -0.0202756,0.00154684 -0.023713,0.00464051 -0.00343742,0.00309368 -0.00515613,0.00681234 -0.00515613,0.0111664l0 0.0924405zm0.293826 0.0773211l-0.108596 0c-0.00434885,0 -0.00750503,-0.000973935 -0.00944769,-0.0029218 -0.00194787,-0.00194266 -0.0029218,-0.00509884 -0.0029218,-0.00944769l0 -0.0402074c0,-0.00434885 0.000973935,-0.00750503 0.0029218,-0.00944769 0.00194266,-0.00194787 0.00509884,-0.0029218 0.00944769,-0.0029218l0.0924405 0c0.0029791,0 0.00521862,-0.000973935 0.00670296,-0.0029218 0.00148955,-0.00194787 0.00223432,-0.00429677 0.00223432,-0.00704671 0,-0.00389574 -0.000744774,-0.00676025 -0.00223432,-0.00858834 -0.00148434,-0.0018385 -0.00372387,-0.00286972 -0.00670296,-0.00309368l-0.0515456 -0.00721858c-0.0160361,-0.00229161 -0.0289264,-0.00756232 -0.0386605,-0.0158069 -0.00973935,-0.0082498 -0.0146038,-0.0219943 -0.0146038,-0.0412386l0 -0.0360825c0,-0.0194735 0.00629672,-0.0344263 0.0189006,-0.0448479 0.0125987,-0.0104216 0.0300097,-0.015635 0.0522331,-0.015635l0.0962217 0c0.00435406,0 0.00750503,0.000973935 0.0094529,0.0029218 0.00194787,0.00194787 0.0029218,0.00509363 0.0029218,0.0094529l0 0.0408896c0,0.00435406 -0.000973935,0.00750503 -0.0029218,0.00944769 -0.00194787,0.00195308 -0.00509884,0.00292701 -0.0094529,0.00292701l-0.080071 0c-0.00297389,0 -0.0052655,0.000973935 -0.00686963,0.0029218 -0.00160413,0.00194787 -0.00240619,0.00440614 -0.00240619,0.00738524 0,0.0029791 0.000802064,0.00549987 0.00240619,0.00756232 0.00160413,0.00206245 0.00389574,0.00320826 0.00686963,0.00343742l0.0512071 0.00686963c0.0160361,0.00229161 0.0289785,0.00756232 0.0388324,0.0158121 0.00984872,0.00824459 0.0147757,0.0219891 0.0147757,0.0412386l0 0.0360825c0,0.0194683 -0.00635401,0.0344158 -0.0190725,0.0448427 -0.0127184,0.0104268 -0.0300722,0.015635 -0.0520613,0.015635z"/>
   <g>
    <g>
     <g>
      <path id="_220803896" class="fil1" d="M0.671187 0.304555l-0.666625 0 0 0.059285 0.667453 -0.000859354 -0.000828105 -0.0584257zm0.973784 0.0584257l0 -0.0575611 -0.667453 -0.000864563 0 0.059285 0.667453 -0.000859354 0 0zm-0.303014 0.70191l-0.00331763 0.034369 -0.00581236 0.0335044 -0.0091352 0.0335044 -0.0116195 0.0326451 -0.0207547 0.0257754 -0.0207547 0.022338 -0.0215828 0.0197599 -0.0215776 0.0154684 -0.0224213 0.0128799 -0.0224109 0.0094529 -0.0232442 0.00601548 -0.0232494 0.00257806 -0.0232442 -0.000859354 -0.0240775 -0.00429677 -0.0240671 -0.00686963 -0.0249057 -0.0103123 -0.025739 -0.014609 -0.025739 -0.0171819 -0.0257286 -0.0206141 -0.0265619 -0.0240567 0 0.000859354 0 0.00257286 0 0.00430198 0 0.00600506 -0.000838522 0.0077394 -0.000828105 0.00858834 0 0.0111716 -0.000828105 0.0128851 -0.000833313 0.0146038 -0.000822897 0.0154632 -0.000833313 0.0180412 -0.000828105 0.0197599 -0.00166142 0.0206245 -0.000833313 0.0231922 -0.000442698 0.0128434 -0.00405719 0.00834355 -0.00593736 0.00975497 -0.00841126 0.00949456 -0.00990601 0.00762482 -0.0113956 0.00574465 -0.0130466 0.00556757 -0.0137028 0.00377595 -0.0152028 0.001901 -0.0159371 0.00095831 -0.016609 -0.000833313 -0.0189214 -0.00280202 -0.0178433 -0.00528112 -0.0160361 -0.00682275 -0.0151246 -0.00758836 -0.0140465 -0.0100675 -0.0114997 -0.0106768 -0.00884875 -0.0121247 -0.000401032 -0.000656234 -0.00179162 -0.031494 -0.00249473 -0.0412386 -0.00248952 -0.0395147 -0.00166142 -0.0386605 -0.00248952 -0.036947 -0.00166142 -0.0352231 -0.00248952 -0.034369 -0.00165621 -0.0317857 -0.00166142 -0.0317857 -0.00166663 -0.0292128 -0.00165621 -0.0292076 -0.000828105 -0.0274941 -0.00166142 -0.0257702 -0.00166142 -0.0249213 -0.000828105 -0.0240515 -0.00166142 -0.0231974 -0.000833313 -0.0214787 -0.000828105 -0.0214787 -0.000828105 -0.0197599 -0.000833313 -0.0189006 -0.00165621 -0.0360825 -0.00166142 -0.0335096 -0.000828105 -0.0309263 -0.000833313 -0.0283535 -0.000828105 -0.0274889 0 -0.0249161 -0.000833313 -0.0249161 0 -0.0231974 -0.000828105 -0.0472489 0 -0.0240567 0 -0.0249161 0 -0.0257754 0 -0.0274889 0 -0.0292128 0 -0.0309263 0 -0.00257806 0 -0.0274941 0 -0.0283483 0 -0.0231974 0 -0.0231974 0 -0.0257754 -0.000833313 -0.0266296 0.000833313 -0.0223432 0.00166142 -0.0206193 0.00331763 -0.0197547 0.00415094 -0.0180464 0.00581236 -0.0163225 0.00747378 -0.0146038 0.00829668 -0.0128851 0.0099633 -0.012031 0.0107914 -0.010307 0.012458 -0.00859354 0.014109 -0.00772898 0.0149424 -0.00601548 0.0166038 -0.00429677 0.01826 -0.00257286 0.0190985 -0.000864563 0.0207547 0 0.0165986 0.00257806 0.0157809 0.00257806 0.0149371 0.00429156 0.0132809 0.00602069 0.0124528 0.00601027 0.0116247 0.00773419 0.0107914 0.00858834 0.0091352 0.0094529 0.00830188 0.0111664 0.00664047 0.0111716 0.00663526 0.0128851 0.00415615 0.014609 0.00415094 0.0146038 0.00331763 0.0163225 0.00166142 0.0171819 0 0.0180412 0 0.0137497 0.000828105 0.0120258 0 0.0120258 0 0.0103123 0 0.010307 0 0.00859354 0 0.00858834 0 0.00687484 0 0.00687484 0 0.00515092 0 0.00515613 0.000833313 0.00343742 0 0.00343742 0 0.00171871 0 0.00171871 0 0 -0.00166142 0.0609985 0.00166142 0.0240567 0 0.0223328 -0.00166142 0.0206193 -0.00166142 0.0189006 -0.00415094 0.036947 -0.000828105 0.0189006 -0.000828105 0.018036 0 0.0274993 -0.000833313 0.0249109 0 0.0240567 0 0.022338 0 0.0197599 -0.000828105 0.0189006 0 0.0163225 0 0.0154632 0 0.0128903 0 0.0111664 0 0.0103123 -0.000828105 0.00772898 0 0.00601548 0 0.00429677 0 0.00257806 0 0.000859354 0.0240723 -0.0189006 0.0232442 -0.0171819 0.0232442 -0.0137497 0.0232442 -0.0111716 0.0224161 -0.00858834 0.0224161 -0.00601548 0.0224161 -0.00257286 0.0215776 0 0.0207547 0.00257286 0.021588 0.00515613 0.0207547 0.00773419 0.0199214 0.010307 0.0199266 0.0128903 0.0199214 0.0163225 0.0199266 0.0180412 0.0190933 0.0214787 0 -0.0902114 0.0290514 0 0 0.390048 0 0 0 0 0 0 0 0zm0.0863417 -0.760336l0.0290566 0 0 -0.299831 -0.0290566 0 0 0.299831 0 0 0 0zm-0.307165 0l0.0282233 0 0 -0.299831 -0.0282233 0 0 0.299831 0 0 0 0zm-0.702317 0l0.0282233 0 0 -0.299831 -0.0282233 0 0 0.299831 0 0 0 0z"/>
      <path id="_2208038961" class="fil0" d="M0.00456239 0.299831l0.666625 0 0 0.00944769 -0.666625 0 -0.00456239 -0.00472385 0.00456239 -0.00472385zm-0.00456239 0.00472385l0 -0.00472385 0.00456239 0 -0.00456239 0.00472385zm0 0.059285l0 -0.059285 0.00912478 0 0 0.059285 -0.00455718 0.00472385 -0.0045676 -0.00472385zm0.0045676 0.00472385l-0.0045676 5.20821e-006 0 -0.00472905 0.0045676 0.00472385zm0.667453 -0.000859354l-0.667453 0.000859354 -1.04164e-005 -0.00944769 0.667453 -0.000859354 0.0045676 0.00465614 -0.00455718 0.00479155zm0.00455718 -0.00479155l6.77067e-005 0.00478634 -0.00462489 5.20821e-006 0.00455718 -0.00479155zm-0.000828105 -0.0584257l0.000828105 0.0584257 -0.00912478 0.000135413 -0.000828105 -0.0584257 0.00456239 -0.00479155 0.00456239 0.00465614zm-0.00456239 -0.00465614l0.00449468 0 6.77067e-005 0.00465614 -0.00456239 -0.00465614zm0.978346 0.00558841l0 0.0575611 -0.00912478 0 0 -0.0575611 0.0045676 -0.00472385 0.00455718 0.00472385zm-0.00455718 -0.00472385l0.00455718 5.20821e-006 0 0.00471864 -0.00455718 -0.00472385zm-0.667453 -0.000864563l0.667453 0.000864563 -1.04164e-005 0.00944769 -0.667453 -0.000864563 -0.00455718 -0.00472385 0.0045676 -0.00472385zm-0.0045676 0.00472385l0 -0.00472905 0.0045676 5.20821e-006 -0.0045676 0.00472385zm0 0.059285l0 -0.059285 0.00912478 0 0 0.059285 -0.00455718 0.00472385 -0.0045676 -0.00472385zm0.0045676 0.00472385l-0.0045676 5.20821e-006 0 -0.00472905 0.0045676 0.00472385zm0.667453 -0.000859354l-0.667453 0.000859354 -1.04164e-005 -0.00944769 0.667453 -0.000859354 0.0045676 0.00472385 -0.00455718 0.00472385zm0.00455718 -0.00472385l0 0.00471864 -0.00455718 5.20821e-006 0.00455718 -0.00472385zm-0.00456239 0l0 0 0 0 0 0 -0.00456239 0 0.00456239 0zm0.00456239 0l0 0.00471864 -0.00455718 5.20821e-006 0.00455718 -0.00472385zm-0.315435 0.73581l0.00331763 -0.034369 0.00908312 0.000937478 -0.00331763 0.034369 -4.68739e-005 0.000364575 -0.00903624 -0.00130205zm0.00908312 0.000937478l-2.08328e-005 0.000213537 -2.6041e-005 0.000151038 4.68739e-005 -0.000364575zm-0.0148486 0.0322024l0.00581236 -0.0335044 0.00898937 0.00166663 -0.00581236 0.0335044 -0.000104164 0.000447906 -0.0088852 -0.00211453zm0.00898937 0.00166663l-3.12493e-005 0.000182287 -7.29149e-005 0.000265619 0.000104164 -0.000447906zm-0.0180204 0.0313899l0.0091352 -0.0335044 0.00878104 0.00256244 -0.0091352 0.0335044 -0.000109372 0.000354158 -0.00867167 -0.0029166zm0.00878104 0.00256244l-5.20821e-005 0.000197912 -5.72903e-005 0.000156246 0.000109372 -0.000354158zm-0.0202912 0.0297285l0.0116195 -0.0326451 0.00856229 0.00327075 -0.0116195 0.0326451 -0.000776023 0.00139059 -0.00778627 -0.00466135zm0.00856229 0.00327075l-0.000270827 0.000765607 -0.000505196 0.000624985 0.000776023 -0.00139059zm-0.028541 0.0211141l0.0207547 -0.0257754 0.00701025 0.00605194 -0.0207547 0.0257754 -0.000213537 0.000249994 -0.00679671 -0.00630193zm0.00701025 0.00605194l-0.000119789 0.000151038 -9.37478e-005 9.8956e-005 0.000213537 -0.000249994zm-0.0275514 0.0160361l0.0207547 -0.022338 0.00658318 0.00655193 -0.0207547 0.022338 -0.000265619 0.00026041 -0.00631756 -0.00681234zm0.00658318 0.00655193l-0.000109372 0.000114581 -0.000156246 0.00014583 0.000265619 -0.00026041zm-0.0279004 0.0129476l0.0215828 -0.0197599 0.00605194 0.00707275 -0.0215828 0.0197599 -0.000427073 0.00034895 -0.00562487 -0.0074217zm0.00605194 0.00707275l-0.000213537 0.000197912 -0.000213537 0.000151038 0.000427073 -0.00034895zm-0.0272025 0.00804668l0.0215776 -0.0154684 0.00519779 0.00777065 -0.0215776 0.0154684 -0.000385407 0.000244786 -0.00481238 -0.00801543zm0.00519779 0.00777065l-0.000166663 0.000119789 -0.000218745 0.000124997 0.000385407 -0.000244786zm-0.0272337 0.00486447l0.0224213 -0.0128799 0.00442698 0.00826022 -0.0224213 0.0128799 -0.000489572 0.000244786 -0.00393741 -0.008505zm0.00442698 0.00826022l-0.000249994 0.00014583 -0.000239578 9.8956e-005 0.000489572 -0.000244786zm-0.0263483 0.000947894l0.0224109 -0.0094529 0.00344783 0.00874979 -0.0224109 0.0094529 -0.000614569 0.000208328 -0.00283327 -0.00895812zm0.00344783 0.00874979l-0.000302076 0.000124997 -0.000312493 8.33313e-005 0.000614569 -0.000208328zm-0.0260775 -0.00294264l0.0232442 -0.00601548 0.0022187 0.00916645 -0.0232442 0.00601548 -0.000624985 0.000114581 -0.00159371 -0.00928103zm0.0022187 0.00916645l-0.000307284 7.81231e-005 -0.000317701 3.64575e-005 0.000624985 -0.000114581zm-0.0248432 -0.00670296l0.0232494 -0.00257806 0.000968727 0.00939561 -0.0232494 0.00257806 -0.000645818 2.08328e-005 -0.000322909 -0.00941644zm0.000968727 0.00939561l-0.000302076 3.12493e-005 -0.000343742 -1.04164e-005 0.000645818 -2.08328e-005zm-0.0235671 -0.0102758l0.0232442 0.000859354 -0.000322909 0.00943727 -0.0232442 -0.000859354 -0.000614569 -6.24985e-005 0.000937478 -0.00937478zm-0.000322909 0.00943727l-0.000333325 -1.04164e-005 -0.000281243 -5.20821e-005 0.000614569 6.24985e-005zm-0.0231401 -0.0136715l0.0240775 0.00429677 -0.00155205 0.00931228 -0.0240775 -0.00429677 -0.00043749 -0.000104164 0.00198954 -0.00920811zm-0.00155205 0.00931228l-0.000192704 -3.64575e-005 -0.000244786 -6.77067e-005 0.00043749 0.000104164zm-0.0220776 -0.0160777l0.0240671 0.00686963 -0.00242703 0.00910395 -0.0240671 -0.00686963 -0.000484363 -0.000166663 0.00291139 -0.00893729zm-0.00242703 0.00910395l-0.000265619 -7.29149e-005 -0.000218745 -9.37478e-005 0.000484363 0.000166663zm-0.0219943 -0.0192495l0.0249057 0.0103123 -0.00339575 0.00877062 -0.0249057 -0.0103123 -0.00049478 -0.000244786 0.00389053 -0.00852584zm-0.00339575 0.00877062l-0.000234369 -9.8956e-005 -0.00026041 -0.00014583 0.00049478 0.000244786zm-0.0218484 -0.0231349l0.025739 0.014609 -0.00438531 0.00828105 -0.025739 -0.014609 -0.000281243 -0.000171871 0.00466655 -0.00810918zm-0.00438531 0.00828105l-0.000156246 -8.85395e-005 -0.000124997 -8.33313e-005 0.000281243 0.000171871zm-0.0210724 -0.0252911l0.025739 0.0171819 -0.0049478 0.00793731 -0.025739 -0.0171819 -0.000322909 -0.000234369 0.00527071 -0.00770294zm-0.0049478 0.00793731l-0.000182287 -0.000119789 -0.000140622 -0.000114581 0.000322909 0.000234369zm-0.0204578 -0.028317l0.0257286 0.0206141 -0.00559362 0.00746857 -0.0257286 -0.0206141 -0.000208328 -0.000177079 0.00580194 -0.00729149zm-0.00559362 0.00746857l-0.000109372 -8.85395e-005 -9.8956e-005 -8.85395e-005 0.000208328 0.000177079zm-0.0207599 -0.0313482l0.0265619 0.0240567 -0.00601027 0.00711441 -0.0265619 -0.0240567 -0.00155725 -0.00355721 0.00756753 -0.00355721zm-0.00756753 0.00355721l0 -0.0104112 0.00756753 0.006854 -0.00756753 0.00355721zm0 0.000859354l0 -0.000859354 0.00912478 0 0 0.000859354 0 0 -0.00912478 0zm0 0.00257286l0 -0.00257286 0.00912478 0 0 0.00257286 0 0 -0.00912478 0zm0 0.00430198l0 -0.00430198 0.00912478 0 0 0.00430198 0 0 -0.00912478 0zm0 0.00600506l0 -0.00600506 0.00912478 0 0 0.00600506 -2.6041e-005 0.000526029 -0.00909874 -0.000526029zm0.00912478 0l0 0.000286451 -2.6041e-005 0.000239578 2.6041e-005 -0.000526029zm-0.00993726 0.00721337l0.000838522 -0.0077394 0.0090727 0.00105206 -0.000838522 0.0077394 -0.00907791 -0.000994768 5.20821e-006 -5.72903e-005zm-5.20821e-006 5.72903e-005l5.20821e-006 -5.72903e-005 5.20821e-006 -2.6041e-005 -1.04164e-005 8.33313e-005zm-0.000828105 0.00858834l0.000828105 -0.00858834 0.00908312 0.000937478 -0.000828105 0.00858834 -0.00910395 -0.000468739 2.08328e-005 -0.000468739zm-2.08328e-005 0.000468739l0 -0.000255202 2.08328e-005 -0.000213537 -2.08328e-005 0.000468739zm0 0.0111716l0 -0.0111716 0.00912478 0 0 0.0111716 -1.04164e-005 0.000312493 -0.00911436 -0.000312493zm0.00912478 0l0 0.000151038 -1.04164e-005 0.000161454 1.04164e-005 -0.000312493zm-0.00994247 0.0125726l0.000828105 -0.0128851 0.00910395 0.000624985 -0.000828105 0.0128851 -0.00910916 -0.000588528 5.20821e-006 -3.64575e-005zm-5.20821e-006 3.64575e-005l5.20821e-006 -3.64575e-005 -2.6041e-005 0.000432281 2.08328e-005 -0.000395824zm-0.000833313 0.0146038l0.000833313 -0.0146038 0.00911436 0.00055207 -0.000833313 0.0146038 -0.00911436 -0.000536445 0 -1.56246e-005zm0 1.56246e-005l0 -1.56246e-005 1.04164e-005 -0.000218745 -1.04164e-005 0.000234369zm-0.000822897 0.0154632l0.000822897 -0.0154632 0.00911436 0.000520821 -0.000822897 0.0154632 -0.00911436 -0.000484363 0 -3.64575e-005zm0 3.64575e-005l0 -3.64575e-005 1.04164e-005 -0.000239578 -1.04164e-005 0.000276035zm-0.000833313 0.0180412l0.000833313 -0.0180412 0.00911436 0.000447906 -0.000833313 0.0180412 -0.00911957 -0.000427073 5.20821e-006 -2.08328e-005zm-5.20821e-006 2.08328e-005l5.20821e-006 -2.08328e-005 -4.68739e-005 0.00101039 4.16657e-005 -0.00098956zm-0.000828105 0.0197599l0.000828105 -0.0197599 0.00912478 0.00040624 -0.000828105 0.0197599 -1.56246e-005 0.000187496 -0.00910916 -0.000593736zm0.00912478 0.00040624l-1.56246e-005 0.000187496 1.56246e-005 -0.00020312 0 1.56246e-005zm-0.0107706 0.0200308l0.00166142 -0.0206245 0.00909353 0.000781231 -0.00166142 0.0206245 -0.00910916 -0.000567695 1.56246e-005 -0.000213537zm-1.56246e-005 0.000213537l0 -3.64575e-005 1.56246e-005 -0.000177079 -1.56246e-005 0.000213537zm-0.000833313 0.0231922l0.000833313 -0.0231922 0.00912478 0.000354158 -0.000833313 0.0231922 -0.00912478 -0.000343742 0 -1.04164e-005zm0 1.04164e-005l0 -1.04164e-005 1.04164e-005 -0.000244786 -1.04164e-005 0.000255202zm-0.000442698 0.0128434l0.000442698 -0.0128434 0.00912478 0.000333325 -0.000442698 0.0128434 -0.000484363 0.00195829 -0.00864042 -0.00229161zm0.00912478 0.000333325l-3.64575e-005 0.00103643 -0.000447906 0.000921853 0.000484363 -0.00195829zm-0.0126976 0.00605194l0.00405719 -0.00834355 0.00815605 0.0042499 -0.00405719 0.00834355 -0.000213537 0.000390616 -0.00794252 -0.00464051zm0.00815605 0.0042499l-9.37478e-005 0.000197912 -0.000119789 0.000192704 0.000213537 -0.000390616zm-0.0138799 0.00511446l0.00593736 -0.00975497 0.00772898 0.00503113 -0.00593736 0.00975497 -0.000499988 0.000677067 -0.00722899 -0.0057082zm0.00772898 0.00503113l-0.000218745 0.000359366 -0.000281243 0.000317701 0.000499988 -0.000677067zm-0.0156403 0.00378637l0.00841126 -0.00949456 0.00672901 0.00638526 -0.00841126 0.00949456 -0.00064061 0.000598944 -0.0060884 -0.00698421zm0.00672901 0.00638526l-0.000296868 0.000333325 -0.000343742 0.000265619 0.00064061 -0.000598944zm-0.0159944 0.00064061l0.00990601 -0.00762482 0.00544779 0.00758315 -0.00990601 0.00762482 -0.000723941 0.000453114 -0.00472385 -0.00803627zm0.00544779 0.00758315l-0.000333325 0.000255202 -0.000390616 0.000197912 0.000723941 -0.000453114zm-0.0161194 -0.00229161l0.0113956 -0.00574465 0.0039999 0.00848938 -0.0113956 0.00574465 -0.00026041 0.000124997 -0.00373949 -0.00861438zm0.0039999 0.00848938l-0.000177079 8.85395e-005 -8.33313e-005 3.64575e-005 0.00026041 -0.000124997zm-0.0167861 -0.0030468l0.0130466 -0.00556757 0.00347908 0.00873937 -0.0130466 0.00556757 -0.000562487 0.000192704 -0.0029166 -0.00893208zm0.00347908 0.00873937l-0.000249994 0.000104164 -0.000312493 8.85395e-005 0.000562487 -0.000192704zm-0.0166194 -0.00515613l0.0137028 -0.00377595 0.00235411 0.00912478 -0.0137028 0.00377595 -0.000630193 0.000124997 -0.00172392 -0.00924978zm0.00235411 0.00912478l-0.000307284 8.33313e-005 -0.000322909 4.16657e-005 0.000630193 -0.000124997zm-0.0169267 -0.00734878l0.0152028 -0.001901 0.00109372 0.00937478 -0.0152028 0.001901 -0.000281243 2.6041e-005 -0.000812481 -0.00940082zm0.00109372 0.00937478l-0.000140622 1.56246e-005 -0.000140622 1.04164e-005 0.000281243 -2.6041e-005zm-0.0167496 -0.00844251l0.0159371 -0.00095831 0.000531237 0.00942686 -0.0159371 0.00095831 -0.000484363 5.20821e-006 -4.68739e-005 -0.00943207zm0.000531237 0.00942686l-0.000265619 1.56246e-005 -0.000218745 -1.04164e-005 0.000484363 -5.20821e-006zm-0.0166559 -0.0102654l0.016609 0.000833313 -0.00043749 0.00943727 -0.016609 -0.000833313 -0.000427073 -4.16657e-005 0.000864563 -0.00939561zm-0.00043749 0.00943727l-0.000218745 -1.04164e-005 -0.000208328 -3.12493e-005 0.000427073 4.16657e-005zm-0.0180569 -0.0121976l0.0189214 0.00280202 -0.00129164 0.00935394 -0.0189214 -0.00280202 -0.00060936 -0.000135413 0.001901 -0.00921853zm-0.00129164 0.00935394l-0.000302076 -4.68739e-005 -0.000307284 -8.85395e-005 0.00060936 0.000135413zm-0.0159423 -0.0144997l0.0178433 0.00528112 -0.00251036 0.00908312 -0.0178433 -0.00528112 -0.000479155 -0.000171871 0.00298951 -0.00891124zm-0.00251036 0.00908312l-0.000244786 -7.29149e-005 -0.000234369 -9.8956e-005 0.000479155 0.000171871zm-0.0130466 -0.015734l0.0160361 0.00682275 -0.00346867 0.00873937 -0.0160361 -0.00682275 -0.000255202 -0.000119789 0.00372387 -0.00861959zm-0.00346867 0.00873937l-0.000109372 -4.68739e-005 -0.00014583 -7.29149e-005 0.000255202 0.000119789zm-0.0114008 -0.0162079l0.0151246 0.00758836 -0.00397907 0.0084998 -0.0151246 -0.00758836 -0.00060936 -0.000364575 0.00458843 -0.00813522zm-0.00397907 0.0084998l-0.000333325 -0.000166663 -0.000276035 -0.000197912 0.00060936 0.000364575zm-0.00945811 -0.0182027l0.0140465 0.0100675 -0.00519779 0.00777065 -0.0140465 -0.0100675 -0.000447906 -0.000369783 0.0056457 -0.00740086zm-0.00519779 0.00777065l-0.000218745 -0.000156246 -0.000229161 -0.000213537 0.000447906 0.000369783zm-0.00585403 -0.0180777l0.0114997 0.0106768 -0.0060936 0.00703108 -0.0114997 -0.0106768 -0.000593736 -0.000666651 0.00668734 -0.00636443zm-0.0060936 0.00703108l-0.000333325 -0.000307284 -0.00026041 -0.000359366 0.000593736 0.000666651zm-0.00216141 -0.0184891l0.00884875 0.0121247 -0.00728108 0.00569778 -0.00884875 -0.0121247 -0.000218745 -0.000322909 0.00749982 -0.00537487zm-0.00728108 0.00569778l-0.000130205 -0.000182287 -8.85395e-005 -0.000140622 0.000218745 0.000322909zm0.00709879 -0.00603111l0.000401032 0.000656234 -0.00771857 0.00505196 -0.000401032 -0.000656234 -0.0006979 -0.00224995 0.00841647 -0.00280202zm-0.00771857 0.00505196l-0.000630193 -0.00102602 -6.77067e-005 -0.00122393 0.0006979 0.00224995zm0.00662484 -0.0342961l0.00179162 0.031494 -0.00911436 0.00055207 -0.00179162 -0.031494 0.00911436 -0.000572903 0 2.08328e-005zm0 -2.08328e-005l0 2.08328e-005 -2.08328e-005 -0.00034895 2.08328e-005 0.000328117zm-0.00249473 -0.0412386l0.00249473 0.0412386 -0.00911436 0.000593736 -0.00249473 -0.0412386 0.00911436 -0.000604152 0 1.04164e-005zm0 -1.04164e-005l0 1.04164e-005 -1.56246e-005 -0.00026041 1.56246e-005 0.000249994zm-0.00248952 -0.0395147l0.00248952 0.0395147 -0.00911436 0.000614569 -0.00248952 -0.0395147 -5.20821e-006 -9.8956e-005 0.00911957 -0.000515613zm-0.00911436 0.000614569l-5.20821e-006 -4.68739e-005 0 -5.20821e-005 5.20821e-006 9.8956e-005zm0.00745815 -0.0391761l0.00166142 0.0386605 -0.00912478 0.000416657 -0.00166142 -0.0386605 0.00911436 -0.000536445 1.04164e-005 0.000119789zm-1.04164e-005 -0.000119789l1.04164e-005 0.000119789 5.20821e-006 9.37478e-005 -1.56246e-005 -0.000213537zm-0.00248952 -0.036947l0.00248952 0.036947 -0.00910395 0.000656234 -0.00248952 -0.036947 -5.20821e-006 -9.8956e-005 0.00910916 -0.000557278zm-0.00910395 0.000656234l-5.20821e-006 -9.8956e-005 5.20821e-006 7.29149e-005 0 2.6041e-005zm0.00744774 -0.0357804l0.00166142 0.0352231 -0.00911436 0.000458322 -0.00166142 -0.0352231 0.00910916 -0.000583319 5.20821e-006 0.000124997zm-5.20821e-006 -0.000124997l0 -2.6041e-005 5.20821e-006 0.000151038 -5.20821e-006 -0.000124997zm-0.00248952 -0.034369l0.00248952 0.034369 -0.00910395 0.000708316 -0.00248952 -0.034369 -5.20821e-006 -9.8956e-005 0.00910916 -0.00060936zm-0.00910395 0.000708316l0 0 -5.20821e-006 -9.8956e-005 5.20821e-006 9.8956e-005zm0.00745295 -0.0323951l0.00165621 0.0317857 -0.00911436 0.000510404 -0.00165621 -0.0317857 0.00911436 -0.000510404zm-0.00166142 -0.0317857l0.00166142 0.0317857 -0.00911436 0.000510404 -0.00166142 -0.0317857 0.00911436 -0.000531237 0 2.08328e-005zm0 -2.08328e-005l0 2.08328e-005 -1.04164e-005 -0.000249994 1.04164e-005 0.000229161zm-0.00166663 -0.0292128l0.00166663 0.0292128 -0.00911436 0.00055207 -0.00166663 -0.0292128 0 0 0.00911436 -0.00055207zm-0.00165621 -0.0292076l0.00165621 0.0292076 -0.00911436 0.00055207 -0.00165621 -0.0292076 -5.20821e-006 -0.000130205 0.00911957 -0.000421865zm-0.00911436 0.00055207l-5.20821e-006 -4.68739e-005 0 -8.33313e-005 5.20821e-006 0.000130205zm0.00829147 -0.027916l0.000828105 0.0274941 -0.00912478 0.00029166 -0.000828105 -0.0274941 0.00911436 -0.000458322 1.04164e-005 0.000166663zm-1.04164e-005 -0.000166663l1.04164e-005 0.000156246 0 1.04164e-005 -1.04164e-005 -0.000166663zm-0.00166142 -0.0257702l0.00166142 0.0257702 -0.00910395 0.000624985 -0.00166142 -0.0257702 0.00910395 -0.000635401 0 1.04164e-005zm0 -1.04164e-005l0 1.04164e-005 -2.08328e-005 -0.000317701 2.08328e-005 0.000307284zm-0.00166142 -0.0249213l0.00166142 0.0249213 -0.00910395 0.000645818 -0.00166142 -0.0249213 -1.04164e-005 -0.000156246 0.00911436 -0.000489572zm-0.00910395 0.000645818l-1.04164e-005 -0.000156246 0 0 1.04164e-005 0.000156246zm0.00828626 -0.0245411l0.000828105 0.0240515 -0.00912478 0.000333325 -0.000828105 -0.0240515 0.00911436 -0.000515613 1.04164e-005 0.000182287zm-1.04164e-005 -0.000182287l1.04164e-005 0.000109372 0 7.29149e-005 -1.04164e-005 -0.000182287zm-0.00166142 -0.0231974l0.00166142 0.0231974 -0.00910395 0.0006979 -0.00166142 -0.0231974 -1.04164e-005 -0.000161454 0.00911436 -0.000536445zm-0.00910395 0.0006979l-1.04164e-005 -0.000124997 0 -3.64575e-005 1.04164e-005 0.000161454zm0.00828105 -0.0220151l0.000833313 0.0214787 -0.00912478 0.000374991 -0.000833313 -0.0214787 0 0 0.00912478 -0.000374991zm-0.000828105 -0.0214787l0.000828105 0.0214787 -0.00912478 0.000374991 -0.000828105 -0.0214787 0.00912478 -0.000390616 0 1.56246e-005zm0 -1.56246e-005l0 1.56246e-005 -5.20821e-006 -0.000192704 5.20821e-006 0.000177079zm-0.000828105 -0.0197599l0.000828105 0.0197599 -0.00912478 0.00040624 -0.000828105 -0.0197599 0.00912478 -0.000416657 0 1.04164e-005zm0 -1.04164e-005l0 1.04164e-005 -1.04164e-005 -0.000208328 1.04164e-005 0.000197912zm-0.000833313 -0.0189006l0.000833313 0.0189006 -0.00912478 0.000427073 -0.000833313 -0.0189006 0.00911957 -0.00043749 5.20821e-006 1.04164e-005zm-5.20821e-006 -1.04164e-005l5.20821e-006 1.04164e-005 0.000114581 0.00260931 -0.000119789 -0.00261973zm-0.00165621 -0.0360825l0.00165621 0.0360825 -0.00911436 0.000447906 -0.00165621 -0.0360825 0.00911436 -0.000463531 0 1.56246e-005zm0 -1.56246e-005l0 1.56246e-005 -1.04164e-005 -0.000208328 1.04164e-005 0.000192704zm-0.00166142 -0.0335096l0.00166142 0.0335096 -0.00911436 0.000479155 -0.00166142 -0.0335096 -5.20821e-006 -0.000109372 0.00911957 -0.000369783zm-0.00911436 0.000479155l-5.20821e-006 -9.8956e-005 0 -1.04164e-005 5.20821e-006 0.000109372zm0.00829147 -0.0312961l0.000828105 0.0309263 -0.00912478 0.00026041 -0.000828105 -0.0309263 0.00912478 -0.000276035 0 1.56246e-005zm0 -1.56246e-005l0 1.56246e-005 -5.20821e-006 -0.000177079 5.20821e-006 0.000161454zm-0.000833313 -0.0283535l0.000833313 0.0283535 -0.00912478 0.00029166 -0.000833313 -0.0283535 0.00912478 -0.00029166zm-0.000828105 -0.0274889l0.000828105 0.0274889 -0.00912478 0.00029166 -0.000828105 -0.0274889 0 -0.00014583 0.00912478 -0.00014583zm-0.00912478 0.00029166l0 0 0 -0.00014583 0 0.00014583zm0.00912478 -0.0250619l0 0.0249161 -0.00912478 0 0 -0.0249161 0.00912478 -0.000161454 0 0.000161454zm0 -0.000161454l0 0 0 0.000161454 0 -0.000161454zm-0.000833313 -0.0249161l0.000833313 0.0249161 -0.00912478 0.000322909 -0.000833313 -0.0249161 0 -0.000161454 0.00912478 -0.000161454zm-0.00912478 0.000322909l0 0 0 -0.000161454 0 0.000161454zm0.00912478 -0.0233588l0 0.0231974 -0.00912478 0 0 -0.0231974 0.00912478 -8.33313e-005 0 8.33313e-005zm0 -8.33313e-005l0 0 0 8.33313e-005 0 -8.33313e-005zm-0.000828105 -0.0472489l0.000828105 0.0472489 -0.00912478 0.000166663 -0.000828105 -0.0472489 0 -8.33313e-005 0.00912478 -8.33313e-005zm-0.00912478 0.000166663l0 0 0 -8.33313e-005 0 8.33313e-005zm0.00912478 -0.02414l0 0.0240567 -0.00912478 0 0 -0.0240567 0 0 0.00912478 0zm0 -0.0249161l0 0.0249161 -0.00912478 0 0 -0.0249161 0 0 0.00912478 0zm0 -0.0257754l0 0.0257754 -0.00912478 0 0 -0.0257754 0 0 0.00912478 0zm0 -0.0274889l0 0.0274889 -0.00912478 0 0 -0.0274889 0 0 0.00912478 0zm0 -0.0292128l0 0.0292128 -0.00912478 0 0 -0.0292128 0 0 0.00912478 0zm0 -0.0309263l0 0.0309263 -0.00912478 0 0 -0.0309263 0 0 0.00912478 0zm0 -0.00257806l0 0.00257806 -0.00912478 0 0 -0.00257806 0 0 0.00912478 0zm0 -0.0274941l0 0.0274941 -0.00912478 0 0 -0.0274941 0 0 0.00912478 0zm0 -0.0283483l0 0.0283483 -0.00912478 0 0 -0.0283483 0 0 0.00912478 0zm0 -0.0231974l0 0.0231974 -0.00912478 0 0 -0.0231974 0 0 0.00912478 0zm0 -0.0231974l0 0.0231974 -0.00912478 0 0 -0.0231974 0 0 0.00912478 0zm0 -0.0257754l0 0.0257754 -0.00912478 0 0 -0.0257754 0.00912478 -0.000151038 0 0.000151038zm0 -0.000151038l0 0 0 0.000151038 0 -0.000151038zm-0.000833313 -0.0266296l0.000833313 0.0266296 -0.00912478 0.000302076 -0.000833313 -0.0266296 0 -0.000333325 0.00912478 3.12493e-005zm-0.00912478 0.000302076l-5.20821e-006 -0.000182287 5.20821e-006 -0.000151038 0 0.000333325zm0.00995809 -0.022312l-0.000833313 0.0223432 -0.00912478 -0.000364575 0.000833313 -0.0223432 1.56246e-005 -0.000208328 0.00910916 0.000572903zm-0.00912478 -0.000364575l0 -2.6041e-005 1.56246e-005 -0.000182287 -1.56246e-005 0.000208328zm0.0107706 -0.0200464l-0.00166142 0.0206193 -0.00909353 -0.000781231 0.00166142 -0.0206193 5.20821e-005 -0.000416657 0.00904145 0.00119789zm-0.00909353 -0.000781231l1.56246e-005 -0.00020312 3.64575e-005 -0.000213537 -5.20821e-005 0.000416657zm0.0123591 -0.0185568l-0.00331763 0.0197547 -0.00898937 -0.00161454 0.00331763 -0.0197547 5.20821e-005 -0.000286451 0.00893729 0.001901zm-0.00898937 -0.00161454l3.64575e-005 -0.000223953 1.56246e-005 -6.24985e-005 -5.20821e-005 0.000286451zm0.0130882 -0.0161454l-0.00415094 0.0180464 -0.0088852 -0.00218745 0.00415094 -0.0180464 0.000161454 -0.000541654 0.00872375 0.0027291zm-0.0088852 -0.00218745l5.72903e-005 -0.000249994 0.000104164 -0.00029166 -0.000161454 0.000541654zm0.0145361 -0.0135934l-0.00581236 0.0163225 -0.00856229 -0.00327075 0.00581236 -0.0163225 0.000244786 -0.000578111 0.00831751 0.00384887zm-0.00856229 -0.00327075l0.000114581 -0.000328117 0.000130205 -0.000249994 -0.000244786 0.000578111zm0.0157913 -0.010755l-0.00747378 0.0146038 -0.00807272 -0.00442698 0.00747378 -0.0146038 0.000239578 -0.00040624 0.00783315 0.00483322zm-0.00807272 -0.00442698l8.33313e-005 -0.000166663 0.000156246 -0.000239578 -0.000239578 0.00040624zm0.0161298 -0.00805189l-0.00829668 0.0128851 -0.00759357 -0.00523946 0.00829668 -0.0128851 0.000333325 -0.000453114 0.00726024 0.00569257zm-0.00759357 -0.00523946l0.00014583 -0.000229161 0.000187496 -0.000223953 -0.000333325 0.000453114zm0.0172235 -0.00633839l-0.0099633 0.012031 -0.00692692 -0.00614569 0.0099633 -0.012031 0.000369783 -0.000401032 0.00655713 0.00654672zm-0.00692692 -0.00614569l0.000187496 -0.000229161 0.000182287 -0.000171871 -0.000369783 0.000401032zm0.0173485 -0.00376033l-0.0107914 0.010307 -0.00618735 -0.00694775 0.0107914 -0.010307 0.000562487 -0.000458322 0.00562487 0.00740607zm-0.00618735 -0.00694775l0.000265619 -0.000255202 0.000296868 -0.00020312 -0.000562487 0.000458322zm0.0180829 -0.00118747l-0.012458 0.00859354 -0.00506238 -0.00786439 0.012458 -0.00859354 0.000395824 -0.000244786 0.00466655 0.00810918zm-0.00506238 -0.00786439l0.000197912 -0.000135413 0.000197912 -0.000109372 -0.000395824 0.000244786zm0.0187756 0.000380199l-0.014109 0.00772898 -0.00427073 -0.00835397 0.014109 -0.00772898 0.000479155 -0.000223953 0.00379158 0.00857792zm-0.00427073 -0.00835397l0.000213537 -0.000114581 0.000265619 -0.000109372 -0.000479155 0.000223953zm0.0187339 0.00256244l-0.0149424 0.00601548 -0.00331242 -0.00880187 0.0149424 -0.00601548 0.000546862 -0.000182287 0.00276556 0.00898416zm-0.00331242 -0.00880187l0.000281243 -0.000114581 0.000265619 -6.77067e-005 -0.000546862 0.000182287zm0.0193693 0.00468739l-0.0166038 0.00429677 -0.0022187 -0.00916645 0.0166038 -0.00429677 0.00049478 -9.8956e-005 0.00172392 0.0092654zm-0.0022187 -0.00916645l0.000249994 -6.24985e-005 0.000244786 -3.64575e-005 -0.00049478 9.8956e-005zm0.0199839 0.00669255l-0.01826 0.00257286 -0.00122914 -0.00936436 0.01826 -0.00257286 0.000416657 -3.64575e-005 0.000812481 0.00940082zm-0.00122914 -0.00936436l0.000182287 -2.6041e-005 0.000234369 -1.04164e-005 -0.000416657 3.64575e-005zm0.019911 0.00853625l-0.0190985 0.000864563 -0.000395824 -0.00943727 0.0190985 -0.000864563 0.000197912 -5.20821e-006 0.000197912 0.00944248zm-0.000395824 -0.00943727l0.000114581 -5.20821e-006 8.33313e-005 0 -0.000197912 5.20821e-006zm0.0209526 0.00944248l-0.0207547 0 0 -0.00944769 0.0207547 0 0.000677067 5.20821e-005 -0.000677067 0.00939561zm0 -0.00944769l0.000343742 0 0.000333325 5.20821e-005 -0.000677067 -5.20821e-005zm0.0159215 0.0119737l-0.0165986 -0.00257806 0.00135413 -0.00934353 0.0165986 0.00257806 3.64575e-005 5.20821e-006 -0.00139059 0.00933832zm0.00135413 -0.00934353l3.64575e-005 5.20821e-006 5.72903e-005 1.04164e-005 -9.37478e-005 -1.56246e-005zm0.0143903 0.0119164l-0.0157809 -0.00257806 0.00142705 -0.00933311 0.0157809 0.00257806 0.000505196 0.000114581 -0.00193225 0.00921853zm0.00142705 -0.00933311l0.000244786 4.16657e-005 0.00026041 7.29149e-005 -0.000505196 -0.000114581zm0.0130049 0.0135101l-0.0149371 -0.00429156 0.00243744 -0.00910395 0.0149371 0.00429156 0.000614569 0.000223953 -0.00305201 0.00888zm0.00243744 -0.00910395l0.000328117 9.37478e-005 0.000286451 0.000130205 -0.000614569 -0.000223953zm0.0102289 0.0149007l-0.0132809 -0.00602069 0.00366658 -0.00865604 0.0132809 0.00602069 9.37478e-005 4.68739e-005 -0.00376033 0.00860917zm0.00366658 -0.00865604l9.37478e-005 4.68739e-005 -0.000151038 -7.29149e-005 5.72903e-005 2.6041e-005zm0.0086925 0.0146194l-0.0124528 -0.00601027 0.00385407 -0.00856229 0.0124528 0.00601027 0.000541654 0.000307284 -0.00439573 0.00825501zm0.00385407 -0.00856229l0.00029166 0.000140622 0.000249994 0.000166663 -0.000541654 -0.000307284zm0.00722899 0.0159892l-0.0116247 -0.00773419 0.00493738 -0.00794773 0.0116247 0.00773419 0.000312493 0.000229161 -0.00524987 0.00771857zm0.00493738 -0.00794773l0.000151038 9.8956e-005 0.000161454 0.000130205 -0.000312493 -0.000229161zm0.00554153 0.0163069l-0.0107914 -0.00858834 0.00556237 -0.0074894 0.0107914 0.00858834 0.000447906 0.00040624 -0.00601027 0.00708316zm0.00556237 -0.0074894l0.000239578 0.000192704 0.000208328 0.000213537 -0.000447906 -0.00040624zm0.00312493 0.0165361l-0.0091352 -0.0094529 0.00645818 -0.00667692 0.0091352 0.0094529 0.000390616 0.000458322 -0.00684879 0.0062186zm0.00645818 -0.00667692l0.000218745 0.000223953 0.000171871 0.000234369 -0.000390616 -0.000458322zm0.00145309 0.017385l-0.00830188 -0.0111664 0.00723941 -0.00576028 0.00830188 0.0111664 0.000265619 0.00040624 -0.00750503 0.00535404zm0.00723941 -0.00576028l0.000119789 0.000161454 0.00014583 0.000244786 -0.000265619 -0.00040624zm-0.000864563 0.0165256l-0.00664047 -0.0111716 0.00777065 -0.0049478 0.00664047 0.0111716 0.000140622 0.000249994 -0.00791127 0.0046978zm0.00777065 -0.0049478l8.85395e-005 0.000151038 5.20821e-005 9.8956e-005 -0.000140622 -0.000249994zm-0.00127601 0.0175829l-0.00663526 -0.0128851 0.00805189 -0.00444781 0.00663526 0.0128851 0.000354158 0.000890604 -0.00840605 0.00355721zm0.00805189 -0.00444781l0.000223953 0.00043749 0.000130205 0.000453114 -0.000354158 -0.000890604zm-0.0042499 0.0181662l-0.00415615 -0.014609 0.00876021 -0.0026666 0.00415615 0.014609 0 0 -0.00876021 0.0026666zm0.00415094 0.0146038l-0.00415094 -0.0146038 0.00876021 -0.0026666 0.00415094 0.0146038 8.85395e-005 0.000359366 -0.00884875 0.00230724zm0.00876021 -0.0026666l5.20821e-005 0.000192704 3.64575e-005 0.000166663 -8.85395e-005 -0.000359366zm-0.00553112 0.0186298l-0.00331763 -0.0163225 0.00893729 -0.00194787 0.00331763 0.0163225 7.29149e-005 0.000505196 -0.0090102 0.00144267zm0.00893729 -0.00194787l4.68739e-005 0.000223953 2.6041e-005 0.000281243 -7.29149e-005 -0.000505196zm-0.00734878 0.0186246l-0.00166142 -0.0171819 0.00908312 -0.000937478 0.00166142 0.0171819 2.08328e-005 0.000468739 -0.00910395 0.000468739zm0.00908312 -0.000937478l2.08328e-005 0.000213537 0 0.000255202 -2.08328e-005 -0.000468739zm-0.00910395 0.01851l0 -0.0180412 0.00912478 0 0 0.0180412 0 0 -0.00912478 0zm0 0.0137497l0 -0.0137497 0.00912478 0 0 0.0137497 -0.00911436 0.000333325 -1.04164e-005 -0.000333325zm1.04164e-005 0.000333325l-1.04164e-005 -0.000151038 0 -0.000182287 1.04164e-005 0.000333325zm0.000828105 0.0120258l-0.000828105 -0.0120258 0.00910395 -0.000666651 0.000828105 0.0120258 1.04164e-005 0.000333325 -0.00911436 0.000333325zm0.00910395 -0.000666651l1.04164e-005 0.000151038 0 0.000182287 -1.04164e-005 -0.000333325zm-0.00911436 0.0123591l0 -0.0120258 0.00912478 0 0 0.0120258 0 0 -0.00912478 0zm0 0.0103123l0 -0.0103123 0.00912478 0 0 0.0103123 0 0 -0.00912478 0zm0 0.010307l0 -0.010307 0.00912478 0 0 0.010307 0 0 -0.00912478 0zm0 0.00859354l0 -0.00859354 0.00912478 0 0 0.00859354 0 0 -0.00912478 0zm0 0.00858834l0 -0.00858834 0.00912478 0 0 0.00858834 0 0 -0.00912478 0zm0 0.00687484l0 -0.00687484 0.00912478 0 0 0.00687484 0 0 -0.00912478 0zm0 0.00687484l0 -0.00687484 0.00912478 0 0 0.00687484 0 0 -0.00912478 0zm0 0.00515092l0 -0.00515092 0.00912478 0 0 0.00515092 0 0 -0.00912478 0zm0 0.00515613l0 -0.00515613 0.00912478 0 0 0.00515613 -0.00898937 0.00115101 -0.000135413 -0.00115101zm0.000135413 0.00115101l-0.000135413 -0.000557278 0 -0.000593736 0.000135413 0.00115101zm0.000833313 0.00343742l-0.000833313 -0.00343742 0.00885395 -0.00230203 0.000833313 0.00343742 0.000135413 0.00115101 -0.00898937 0.00115101zm0.00885395 -0.00230203l0.000135413 0.000557278 0 0.000593736 -0.000135413 -0.00115101zm-0.00898937 0.00458843l0 -0.00343742 0.00912478 0 0 0.00343742 0 0 -0.00912478 0zm0 0.00171871l0 -0.00171871 0.00912478 0 0 0.00171871 0 0 -0.00912478 0zm0 0.00171871l0 -0.00171871 0.00912478 0 0 0.00171871 0 0.000135413 -0.00912478 -0.000135413zm0.00912478 0l0 0.000135413 0 0 0 -0.000135413zm-0.00456239 0l0 0 0 0 0 0 0.00456239 0.000135413 -0.00456239 -0.000135413zm0.00456239 0l0 0.000135413 0 0 0 -0.000135413zm-0.0107862 0.0608631l0.00166142 -0.0609985 0.00912478 0.000270827 -0.00166142 0.0609985 -0.00911436 0.00020312 -1.04164e-005 -0.000473947zm1.04164e-005 0.000473947l-1.56246e-005 -0.000244786 5.20821e-006 -0.000229161 1.04164e-005 0.000473947zm0.00166142 0.0240567l-0.00166142 -0.0240567 0.00910395 -0.000677067 0.00166142 0.0240567 1.04164e-005 0.000338534 -0.00911436 0.000338534zm0.00910395 -0.000677067l1.04164e-005 0.000151038 0 0.000187496 -1.04164e-005 -0.000338534zm-0.00911436 0.0226713l0 -0.0223328 0.00912478 0 0 0.0223328 -1.56246e-005 0.000390616 -0.00910916 -0.000390616zm0.00912478 0l0 0.000197912 -1.56246e-005 0.000192704 1.56246e-005 -0.000390616zm-0.0107706 0.0202287l0.00166142 -0.0206193 0.00909353 0.000781231 -0.00166142 0.0206193 0 3.64575e-005 -0.00909353 -0.000817689zm0.00909353 0.000781231l0 3.64575e-005 -3.64575e-005 0.000401032 3.64575e-005 -0.00043749zm-0.010755 0.0180829l0.00166142 -0.0189006 0.00909353 0.000854146 -0.00166142 0.0189006 -1.04164e-005 0.000119789 -0.00908312 -0.000973935zm0.00909353 0.000854146l-1.04164e-005 0.000124997 0 -5.20821e-006 1.04164e-005 -0.000119789zm-0.0132341 0.0359731l0.00415094 -0.036947 0.0090727 0.00109372 -0.00415094 0.036947 -0.00909874 -0.000760398 2.6041e-005 -0.000333325zm-2.6041e-005 0.000333325l5.20821e-006 -0.000166663 2.08328e-005 -0.000166663 -2.6041e-005 0.000333325zm-0.000828105 0.0189006l0.000828105 -0.0189006 0.00912478 0.000427073 -0.000828105 0.0189006 -5.20821e-006 1.04164e-005 -0.00911957 -0.00043749zm0.00912478 0.000427073l-5.20821e-006 1.04164e-005 0.000104164 -0.00226036 -9.8956e-005 0.00224995zm-0.00994768 0.0175985l0.000828105 -0.018036 0.00911436 0.000447906 -0.000828105 0.018036 -0.00911957 -0.000223953 5.20821e-006 -0.000223953zm-5.20821e-006 0.000223953l0 -0.000109372 5.20821e-006 -0.000114581 -5.20821e-006 0.000223953zm0 0.0274993l0 -0.0274993 0.00912478 0 0 0.0274993 0 0.000161454 -0.00912478 -0.000161454zm0.00912478 0l0 0.000161454 0 0 0 -0.000161454zm-0.00995809 0.0247494l0.000833313 -0.0249109 0.00912478 0.000322909 -0.000833313 0.0249109 -0.00912478 -0.000161454 0 -0.000161454zm0 0.000161454l0 -0.000161454 0 0 0 0.000161454zm0 0.0240567l0 -0.0240567 0.00912478 0 0 0.0240567 0 0 -0.00912478 0zm0 0.022338l0 -0.022338 0.00912478 0 0 0.022338 0 0 -0.00912478 0zm0 0.0197599l0 -0.0197599 0.00912478 0 0 0.0197599 0 0.000213537 -0.00912478 -0.000213537zm0.00912478 0l0 0.000213537 0 0 0 -0.000213537zm-0.00995289 0.0186871l0.000828105 -0.0189006 0.00912478 0.000427073 -0.000828105 0.0189006 -0.00912478 -0.000213537 0 -0.000213537zm0 0.000213537l0 -0.000213537 0 0 0 0.000213537zm0 0.0163225l0 -0.0163225 0.00912478 0 0 0.0163225 0 0 -0.00912478 0zm0 0.0154632l0 -0.0154632 0.00912478 0 0 0.0154632 0 0 -0.00912478 0zm0 0.0128903l0 -0.0128903 0.00912478 0 0 0.0128903 0 0 -0.00912478 0zm0 0.0111664l0 -0.0111664 0.00912478 0 0 0.0111664 0 0 -0.00912478 0zm0 0.0103123l0 -0.0103123 0.00912478 0 0 0.0103123 -2.6041e-005 0.000520821 -0.00909874 -0.000520821zm0.00912478 0l0 0.000276035 -2.6041e-005 0.000244786 2.6041e-005 -0.000520821zm-0.00992685 0.00720816l0.000828105 -0.00772898 0.0090727 0.00104164 -0.000828105 0.00772898 -0.00909874 -0.000520821 2.6041e-005 -0.000520821zm-2.6041e-005 0.000520821l0 -0.000276035 2.6041e-005 -0.000244786 -2.6041e-005 0.000520821zm0 0.00601548l0 -0.00601548 0.00912478 0 0 0.00601548 0 0 -0.00912478 0zm0 0.00429677l0 -0.00429677 0.00912478 0 0 0.00429677 0 0 -0.00912478 0zm0 0.00257806l0 -0.00257806 0.00912478 0 0 0.00257806 0 0 -0.00912478 0zm0 0.000859354l0 -0.000859354 0.00912478 0 0 0.000859354 -0.00180204 0.00376553 -0.00732274 -0.00376553zm0.00732274 0.00376553l-0.00732274 0.00574986 0 -0.0095154 0.00732274 0.00376553zm0.0240723 -0.0189006l-0.0240723 0.0189006 -0.0055207 -0.00753107 0.0240723 -0.0189006 0.000109372 -7.81231e-005 0.00541133 0.00760919zm-0.0055207 -0.00753107l0.000109372 -7.81231e-005 -0.000166663 0.000124997 5.72903e-005 -4.68739e-005zm0.0286556 -0.00957269l-0.0232442 0.0171819 -0.00530196 -0.00768732 0.0232442 -0.0171819 0.000385407 -0.000255202 0.00491655 0.00794252zm-0.00530196 -0.00768732l0.000182287 -0.000135413 0.00020312 -0.000119789 -0.000385407 0.000255202zm0.0281608 -0.00580715l-0.0232442 0.0137497 -0.00453114 -0.00819772 0.0232442 -0.0137497 0.000343742 -0.000187496 0.0041874 0.00838522zm-0.00453114 -0.00819772l0.00020312 -0.000119789 0.000140622 -6.77067e-005 -0.000343742 0.000187496zm0.0274316 -0.00278639l-0.0232442 0.0111716 -0.00384366 -0.00857271 0.0232442 -0.0111716 0.000338534 -0.00014583 0.00350512 0.00871854zm-0.00384366 -0.00857271l0.000166663 -7.81231e-005 0.000171871 -6.77067e-005 -0.000338534 0.00014583zm0.0259213 0.000130205l-0.0224161 0.00858834 -0.00316659 -0.00886437 0.0224161 -0.00858834 0.00043749 -0.000140622 0.0027291 0.00900499zm-0.00316659 -0.00886437l0.00020312 -7.81231e-005 0.000234369 -6.24985e-005 -0.00043749 0.000140622zm0.0251452 0.00298951l-0.0224161 0.00601548 -0.00229161 -0.00914561 0.0224161 -0.00601548 0.00064061 -0.000119789 0.001651 0.0092654zm-0.00229161 -0.00914561l0.000302076 -8.33313e-005 0.000338534 -3.64575e-005 -0.00064061 0.000119789zm0.0240671 0.00669255l-0.0224161 0.00257286 -0.00101039 -0.00938519 0.0224161 -0.00257286 0.000505196 -3.12493e-005 0.000505196 0.00941644zm-0.00101039 -0.00938519l0.000270827 -3.12493e-005 0.000234369 0 -0.000505196 3.12493e-005zm0.0220828 0.00941644l-0.0215776 0 0 -0.00944769 0.0215776 0 0.000541654 3.12493e-005 -0.000541654 0.00941644zm0 -0.00944769l0.00029166 0 0.000249994 3.12493e-005 -0.000541654 -3.12493e-005zm0.0202131 0.0119893l-0.0207547 -0.00257286 0.00108331 -0.00938519 0.0207547 0.00257286 0.000484363 8.85395e-005 -0.00156767 0.00929665zm0.00108331 -0.00938519l0.000234369 3.12493e-005 0.000249994 5.72903e-005 -0.000484363 -8.85395e-005zm0.0200204 0.0144528l-0.021588 -0.00515613 0.00205203 -0.00920811 0.021588 0.00515613 0.000520821 0.000161454 -0.00257286 0.00904666zm0.00205203 -0.00920811l0.000244786 5.72903e-005 0.000276035 0.000104164 -0.000520821 -0.000161454zm0.0181819 0.0167808l-0.0207547 -0.00773419 0.00309368 -0.0088852 0.0207547 0.00773419 0.00049478 0.000218745 -0.00358846 0.00866646zm0.00309368 -0.0088852l0.000255202 9.37478e-005 0.000239578 0.000124997 -0.00049478 -0.000218745zm0.0163329 0.0189735l-0.0199214 -0.010307 0.00408324 -0.00844771 0.0199214 0.010307 0.000380199 0.000218745 -0.00446343 0.00822897zm0.00408324 -0.00844771l0.000208328 0.000109372 0.000171871 0.000109372 -0.000380199 -0.000218745zm0.0154632 0.0211193l-0.0199266 -0.0128903 0.00484363 -0.00801022 0.0199266 0.0128903 0.000411448 0.000302076 -0.00525508 0.00770815zm0.00484363 -0.00801022l0.00020312 0.000130205 0.000208328 0.000171871 -0.000411448 -0.000302076zm0.0146663 0.0240307l-0.0199214 -0.0163225 0.00566653 -0.00740607 0.0199214 0.0163225 0.000171871 0.00014583 -0.0058384 0.00726024zm0.00566653 -0.00740607l0.000114581 9.37478e-005 5.72903e-005 5.20821e-005 -0.000171871 -0.00014583zm0.0140882 0.0253015l-0.0199266 -0.0180412 0.00601027 -0.00711441 0.0199266 0.0180412 0.000354158 0.000359366 -0.00636443 0.00675505zm0.00601027 -0.00711441l0.000177079 0.000161454 0.000177079 0.000197912 -0.000354158 -0.000359366zm0.0127289 0.0282337l-0.0190933 -0.0214787 0.00671859 -0.00639568 0.0190933 0.0214787 0.0012031 0.00319784 -0.00792169 0.00319784zm0.00792169 -0.00319784l0 0.0121091 -0.00792169 -0.00891124 0.00792169 -0.00319784zm0 -0.0902114l0 0.0902114 -0.00912478 0 0 -0.0902114 0.00456239 -0.00472385 0.00456239 0.00472385zm-0.00912478 0l0 -0.00472385 0.00456239 0 -0.00456239 0.00472385zm0.0336138 0.00472385l-0.0290514 0 0 -0.00944769 0.0290514 0 0.00456239 0.00472385 -0.00456239 0.00472385zm0 -0.00944769l0.00456239 0 0 0.00472385 -0.00456239 -0.00472385zm-0.00456239 0.394772l0 -0.390048 0.00912478 0 0 0.390048 -2.08328e-005 0.000468739 -0.00910395 -0.000468739zm0.00912478 0l0 0.000255202 -2.08328e-005 0.000213537 2.08328e-005 -0.000468739zm-0.00456239 0l0 0 0 0 0 0 0.00454156 0.000468739 -0.00454156 -0.000468739zm0.00456239 0l0 0.000255202 -2.08328e-005 0.000213537 2.08328e-005 -0.000468739zm-0.00456239 0l0 0 0 0 0 0 0.00454156 0.000468739 -0.00454156 -0.000468739zm0.00456239 0l0 0.000255202 -2.08328e-005 0.000213537 2.08328e-005 -0.000468739zm-0.00456239 0l0 0 0 0 0 0 0.00454156 0.000468739 -0.00454156 -0.000468739zm0.00456239 0l0 0.000255202 -2.08328e-005 0.000213537 2.08328e-005 -0.000468739zm-0.00456239 0l0 0 0 0 0 0 0.00454156 0.000468739 -0.00454156 -0.000468739zm0.00456239 0l0 0.000255202 -2.08328e-005 0.000213537 2.08328e-005 -0.000468739zm0.110836 -0.755612l-0.0290566 0 0 -0.00944769 0.0290566 0 0.00456239 0.00472385 -0.00456239 0.00472385zm0.00456239 -0.00472385l0 0.00472385 -0.00456239 0 0.00456239 -0.00472385zm0 -0.299831l0 0.299831 -0.00912478 0 0 -0.299831 0.00456239 -0.00472385 0.00456239 0.00472385zm-0.00456239 -0.00472385l0.00456239 0 0 0.00472385 -0.00456239 -0.00472385zm-0.0290566 0l0.0290566 0 0 0.00944769 -0.0290566 0 -0.00456239 -0.00472385 0.00456239 -0.00472385zm-0.00456239 0.00472385l0 -0.00472385 0.00456239 0 -0.00456239 0.00472385zm0 0.299831l0 -0.299831 0.00912478 0 0 0.299831 -0.00456239 0.00472385 -0.00456239 -0.00472385zm0.00456239 0.00472385l-0.00456239 0 0 -0.00472385 0.00456239 0.00472385zm0 -0.00472385l0 0 0 0 0 0 0 -0.00472385 0 0.00472385zm0 0.00472385l-0.00456239 0 0 -0.00472385 0.00456239 0.00472385zm0 -0.00472385l0 0 0 0 0 0 0 -0.00472385 0 0.00472385zm0 0.00472385l-0.00456239 0 0 -0.00472385 0.00456239 0.00472385zm-0.278941 0l-0.0282233 0 0 -0.00944769 0.0282233 0 0.00456239 0.00472385 -0.00456239 0.00472385zm0.00456239 -0.00472385l0 0.00472385 -0.00456239 0 0.00456239 -0.00472385zm0 -0.299831l0 0.299831 -0.00912478 0 0 -0.299831 0.00456239 -0.00472385 0.00456239 0.00472385zm-0.00456239 -0.00472385l0.00456239 0 0 0.00472385 -0.00456239 -0.00472385zm-0.0282233 0l0.0282233 0 0 0.00944769 -0.0282233 0 -0.00456239 -0.00472385 0.00456239 -0.00472385zm-0.00456239 0.00472385l0 -0.00472385 0.00456239 0 -0.00456239 0.00472385zm0 0.299831l0 -0.299831 0.00912478 0 0 0.299831 -0.00456239 0.00472385 -0.00456239 -0.00472385zm0.00456239 0.00472385l-0.00456239 0 0 -0.00472385 0.00456239 0.00472385zm0 -0.00472385l0 0 0 0 0 0 0 -0.00472385 0 0.00472385zm0 0.00472385l-0.00456239 0 0 -0.00472385 0.00456239 0.00472385zm0 -0.00472385l0 0 0 0 0 0 0 -0.00472385 0 0.00472385zm0 0.00472385l-0.00456239 0 0 -0.00472385 0.00456239 0.00472385zm-0.674093 0l-0.0282233 0 0 -0.00944769 0.0282233 0 0.00456239 0.00472385 -0.00456239 0.00472385zm0.00456239 -0.00472385l0 0.00472385 -0.00456239 0 0.00456239 -0.00472385zm0 -0.299831l0 0.299831 -0.00912478 0 0 -0.299831 0.00456239 -0.00472385 0.00456239 0.00472385zm-0.00456239 -0.00472385l0.00456239 0 0 0.00472385 -0.00456239 -0.00472385zm-0.0282233 0l0.0282233 0 0 0.00944769 -0.0282233 0 -0.00456239 -0.00472385 0.00456239 -0.00472385zm-0.00456239 0.00472385l0 -0.00472385 0.00456239 0 -0.00456239 0.00472385zm0 0.299831l0 -0.299831 0.00912478 0 0 0.299831 -0.00456239 0.00472385 -0.00456239 -0.00472385zm0.00456239 0.00472385l-0.00456239 0 0 -0.00472385 0.00456239 0.00472385zm0 -0.00472385l0 0 0 0 0 0 0 -0.00472385 0 0.00472385zm0 0.00472385l-0.00456239 0 0 -0.00472385 0.00456239 0.00472385zm0 -0.00472385l0 0 0 0 0 0 0 -0.00472385 0 0.00472385zm0 0.00472385l-0.00456239 0 0 -0.00472385 0.00456239 0.00472385z"/>
     </g>
     <path id="_220785560" class="fil2" d="M1.3073 1.05352l0 -0.0859146 -0.0157757 0.0171819 -0.0157705 0.0154632 -0.0157757 0.0128903 -0.0174319 0.0111664 -0.0174371 0.0094529 -0.01826 0.00686963 -0.0174371 0.00601548 -0.01826 0.00343742 -0.0182652 0.00257806 -0.0182652 0.000859354 -0.01826 -0.000859354 -0.0182652 -0.00257806 -0.0174319 -0.00429677 -0.0166038 -0.00601548 -0.0166038 -0.00686963 -0.0149424 -0.00773419 -0.0149424 -0.00944769 -0.0141142 -0.0111716 -0.0124528 -0.0120258 -0.0116247 -0.0128903 -0.0107914 -0.0146038 -0.00912999 -0.0154632 -0.00747378 -0.0163225 -0.00581236 -0.0171819 -0.00415094 -0.0180464 -0.00248952 -0.0189006 -0.000828105 -0.0197599 0.00166142 -0.0206193 0.00331763 -0.0214787 0.00581236 -0.0223328 0.00830188 -0.0231974 0.0107914 -0.0231974 0.0099633 -0.0128903 0.0107914 -0.0111664 0.0107914 -0.010307 0.0107914 -0.0094529 0.0107914 -0.00773419 0.0107966 -0.00772898 0.00995809 -0.00601548 0.0107966 -0.00429677 0.0215828 -0.00858834 0.0207547 -0.00429677 0.0215828 -0.00343742 0.0207547 -0.000859354 0.0224161 0.000859354 0.0215828 0.00257806 0.0215828 0.00515613 0.0107914 0.00343742 0.0107914 0.00515092 0.0107966 0.00601548 0.0107914 0.00687484 0.0107914 0.00772898 0.0107914 0.0094529 0.0107914 0.0111664 0.0107914 0.012031 0.0107914 0.0137445 0.0107966 0.0146038 0 -0.0876281 0.0290514 0 0 0.380595 -0.00830188 0.00171871 -0.00746857 0 -0.00664047 0.000859354 -0.00415094 0 -0.00415094 0 -0.00248952 -0.000859354 -0.000833313 0 0.000833313 -0.00171871 0 0 0 0 0 0 0 0 0 0 0 0zm-0.0149424 -0.193308l-0.000833313 -0.0146038 -0.00166142 -0.0137445 -0.00415094 -0.0137497 -0.00497905 -0.0128851 -0.00581236 -0.0120258 -0.00746857 -0.0111716 -0.00830188 -0.0111664 -0.0099633 -0.0103123 -0.0099633 -0.00858834 -0.0116195 -0.00859354 -0.0124528 -0.00687484 -0.0124528 -0.00601027 -0.0141142 -0.00429677 -0.0141142 -0.00343742 -0.014109 -0.00257806 -0.0149476 -0.000859354 -0.0157705 0.000859354 -0.0141142 0.00257806 -0.0141142 0.00343742 -0.014109 0.00429677 -0.0124528 0.00601027 -0.0124528 0.00687484 -0.0107914 0.00859354 -0.0107914 0.00858834 -0.0099633 0.0103123 -0.00830188 0.0111664 -0.00747378 0.0111716 -0.00580715 0.0120258 -0.00498426 0.0128851 -0.00331763 0.0137497 -0.00249473 0.0137445 -0.000828105 0.0146038 0.000828105 0.014609 0.00249473 0.0137445 0.00331763 0.0137445 0.00498426 0.0128903 0.00580715 0.0120258 0.00747378 0.0120258 0.00830188 0.0103123 0.0099633 0.010307 0.0107914 0.0094529 0.0107914 0.00773419 0.0124528 0.00686963 0.0124528 0.00601548 0.014109 0.00515613 0.0141142 0.00343221 0.0141142 0.00171871 0.0157705 0.000859354 0.0149476 -0.000859354 0.014109 -0.00171871 0.0141142 -0.00343221 0.0141142 -0.00515613 0.0124528 -0.00601548 0.0124528 -0.00686963 0.0116195 -0.00773419 0.0099633 -0.0094529 0.0099633 -0.010307 0.00830188 -0.0103123 0.00746857 -0.0120258 0.00581236 -0.0120258 0.00497905 -0.0128903 0.00415094 -0.0137445 0.00166142 -0.0137445 0.000833313 -0.014609 0 0z"/>
    </g>
    <polygon id="_220792832" class="fil3" points="0.64462,0.367272 0.7019,0.362122 0.704395,0.381022 0.708546,0.397345 0.713525,0.412808 0.720165,0.426557 0.729295,0.438583 0.739258,0.44975 0.751711,0.459203 0.766654,0.467791 0.782429,0.473806 0.799033,0.478962 0.817293,0.4824 0.836391,0.483259 0.85299,0.4824 0.868766,0.479822 0.883708,0.476384 0.896989,0.471228 0.909442,0.464359 0.920238,0.457484 0.929368,0.44889 0.936837,0.438583 0.941821,0.428271 0.945972,0.417105 0.948462,0.405938 0.94929,0.393907 0.948462,0.381881 0.9468,0.37071 0.942649,0.360403 0.936837,0.35095 0.930196,0.341502 0.921066,0.333768 0.909442,0.326039 0.896161,0.319164 0.890348,0.317446 0.883708,0.314867 0.876239,0.312289 0.866276,0.308852 0.855485,0.30542 0.84386,0.301982 0.829746,0.297686 0.814803,0.294248 0.799861,0.289951 0.785747,0.28566 0.773294,0.281363 0.761674,0.277066 0.750883,0.27277 0.741748,0.268473 0.734279,0.265041 0.726806,0.260744 0.711863,0.250431 0.698582,0.238406 0.687791,0.225515 0.678656,0.211771 0.671187,0.197167 0.666203,0.180845 0.663713,0.164517 0.662052,0.146476 0.663713,0.126716 0.667036,0.107815 0.673677,0.0897739 0.681978,0.072592 0.69277,0.0562695 0.706051,0.0416657 0.721826,0.0296347 0.739258,0.0193277 0.758352,0.0115935 0.779106,0.00643735 0.800694,0.00299993 0.823105,0.00128643 0.848011,0.00299993 0.870427,0.00643735 0.89201,0.0124528 0.912765,0.020187 0.93103,0.0313534 0.9468,0.0442385 0.960081,0.0588475 0.971706,0.0760294 0.981669,0.09493 0.98831,0.11469 0.992461,0.136169 0.99495,0.158507 0.936837,0.163663 0.933519,0.140465 0.926879,0.119846 0.917744,0.102664 0.905291,0.0880552 0.890348,0.0768888 0.872088,0.0691546 0.8505,0.0639985 0.838881,0.0631443 0.825595,0.0631443 0.813142,0.0631443 0.800694,0.0639985 0.78907,0.0657172 0.778278,0.0682952 0.769143,0.0717327 0.760846,0.0760294 0.753373,0.0803262 0.745899,0.0854771 0.735107,0.0975081 0.727639,0.111253 0.722655,0.125856 0.720998,0.141325 0.721826,0.155069 0.725144,0.167095 0.730956,0.178267 0.739258,0.187714 0.744243,0.19287 0.750883,0.197167 0.760013,0.202323 0.769976,0.206615 0.782429,0.210912 0.796543,0.216068 0.812314,0.220365 0.829746,0.225515 0.847183,0.230672 0.863787,0.234968 0.878729,0.239265 0.89201,0.243562 0.903635,0.247853 0.914426,0.251291 0.922728,0.255588 0.93103,0.259025 0.94929,0.270191 0.965065,0.283082 0.978346,0.296826 0.989138,0.312289 0.99744,0.329471 1.00325,0.347513 1.0074,0.367272 1.00823,0.387032 1.00657,0.408511 1.00325,0.428271 0.996612,0.447177 0.987482,0.466077 0.975857,0.484119 0.961743,0.499582 0.945972,0.512467 0.927707,0.524498 0.907786,0.533086 0.886198,0.539961 0.863787,0.543398 0.839709,0.544258 0.810652,0.543398 0.783257,0.539102 0.758352,0.533086 0.736769,0.523638 0.716847,0.512467 0.69941,0.497863 0.68364,0.480681 0.671187,0.461781 0.660396,0.440302 0.652922,0.417105 0.647943,0.392189 0.646281,0.366418 0.64462,0.367272 0.64462,0.367272 0.64462,0.367272 0.64462,0.367272 0.64462,0.367272 0.64462,0.367272 "/>
   </g>
  </g>
 </g>
</svg>
